<svg id="svg" version="1.1" xmlns="http://www.w3.org/2000/svg" xmlns:xlink="http://www.w3.org/1999/xlink" width="400" height="430.14804845222073" viewBox="0, 0, 400,430.14804845222073"><g id="svgg"><path id="path0" d="M199.731 114.124 C 199.509 114.272,198.055 114.401,196.501 114.411 C 193.646 114.429,192.264 114.573,187.618 115.334 C 186.211 115.565,184.299 115.869,183.367 116.010 C 182.436 116.152,181.547 116.345,181.393 116.441 C 181.238 116.536,180.365 116.784,179.452 116.992 C 178.539 117.200,177.066 117.553,176.178 117.778 C 175.289 118.003,174.099 118.289,173.532 118.415 C 172.964 118.541,172.365 118.779,172.199 118.945 C 172.033 119.111,171.627 119.246,171.297 119.246 C 170.486 119.246,169.919 120.106,167.715 124.678 C 165.047 130.213,165.009 129.921,168.227 128.524 C 185.320 121.105,209.258 119.448,224.768 124.611 C 240.392 129.812,249.501 140.472,249.627 153.701 C 249.745 166.199,243.567 174.253,230.148 179.098 C 226.670 180.353,226.696 180.706,230.340 181.725 L 233.089 182.494 235.572 181.683 C 256.590 174.814,262.138 149.283,246.249 132.555 C 243.643 129.812,244.054 129.563,246.974 132.114 C 253.568 137.873,256.824 144.083,257.608 152.395 C 258.883 165.911,252.407 176.689,239.423 182.662 L 236.624 183.950 238.821 185.124 C 250.822 191.536,257.421 204.229,255.731 217.651 C 253.927 231.983,243.149 241.661,226.380 244.009 C 222.812 244.508,151.274 245.000,151.283 244.525 C 151.286 244.390,154.193 241.806,157.744 238.782 L 164.199 233.284 164.199 213.008 L 164.199 192.732 161.842 192.732 C 159.703 192.732,153.533 193.319,151.780 193.688 C 151.136 193.824,150.020 191.461,150.508 190.995 C 150.650 190.859,156.774 190.350,160.767 190.141 L 164.199 189.962 164.199 187.536 L 164.199 185.110 158.479 185.293 C 155.333 185.394,151.851 185.584,150.740 185.716 C 148.183 186.020,148.223 186.385,150.321 181.815 C 151.315 179.650,152.048 177.799,151.950 177.701 C 151.852 177.604,150.601 177.157,149.170 176.709 L 146.568 175.894 146.484 174.741 C 146.394 173.490,145.575 173.178,145.409 174.332 C 145.364 174.646,144.910 175.391,144.400 175.987 C 143.890 176.583,143.472 177.249,143.472 177.466 C 143.472 177.684,143.291 178.012,143.069 178.197 C 142.847 178.381,142.665 178.744,142.665 179.004 C 142.665 179.264,142.483 179.627,142.261 179.812 C 142.039 179.996,141.857 180.358,141.857 180.616 C 141.857 180.874,141.615 181.393,141.319 181.769 C 141.023 182.146,140.781 182.813,140.781 183.253 C 140.781 183.693,140.599 184.203,140.377 184.388 C 139.553 185.071,139.833 190.576,140.829 193.271 C 141.294 194.529,141.726 196.189,141.790 196.959 C 141.854 197.729,142.076 198.501,142.285 198.674 C 142.494 198.847,142.665 199.262,142.665 199.596 C 142.665 199.930,142.847 200.354,143.069 200.538 C 143.291 200.723,143.472 201.075,143.472 201.321 C 143.472 201.890,146.173 204.576,146.745 204.576 C 146.982 204.576,147.326 204.758,147.510 204.980 C 147.730 205.245,148.331 205.384,149.260 205.384 C 150.189 205.384,150.789 205.522,151.009 205.787 C 151.197 206.013,151.784 206.191,152.341 206.191 C 153.039 206.191,153.516 206.381,153.932 206.823 L 154.525 207.455 154.450 219.363 L 154.374 231.271 152.795 232.728 C 151.927 233.530,151.095 234.186,150.946 234.186 C 149.908 234.186,144.549 240.579,144.549 241.817 C 144.549 242.021,144.307 242.496,144.011 242.873 C 143.715 243.249,143.472 243.735,143.472 243.953 C 143.472 244.171,143.291 244.499,143.069 244.684 C 142.769 244.932,142.665 245.594,142.665 247.241 C 142.665 248.888,142.769 249.550,143.069 249.798 C 143.291 249.982,143.472 250.422,143.472 250.776 C 143.472 251.129,143.715 251.626,144.011 251.879 C 144.307 252.133,144.549 252.541,144.549 252.786 C 144.549 253.031,144.731 253.382,144.953 253.567 C 145.175 253.751,145.357 254.114,145.357 254.374 C 145.357 254.634,145.538 254.997,145.760 255.182 C 145.983 255.366,146.164 255.786,146.164 256.115 C 146.164 256.444,146.406 256.933,146.703 257.201 C 146.999 257.469,147.241 257.976,147.241 258.327 C 147.241 258.679,147.423 259.037,147.645 259.122 C 147.867 259.207,148.048 259.480,148.048 259.728 C 148.048 260.303,150.748 262.988,151.326 262.988 C 151.564 262.988,151.829 263.170,151.914 263.392 C 152.018 263.662,152.443 263.795,153.201 263.795 C 153.900 263.795,154.530 263.975,154.852 264.266 C 155.659 264.997,229.171 264.997,230.787 264.266 C 231.422 263.979,232.486 263.795,233.513 263.795 C 234.681 263.795,235.299 263.672,235.532 263.392 C 235.767 263.108,236.391 262.988,237.630 262.988 C 238.861 262.988,239.535 262.859,239.864 262.561 C 240.123 262.327,240.827 262.069,241.429 261.988 C 242.030 261.907,242.660 261.675,242.828 261.472 C 242.997 261.270,243.589 261.104,244.145 261.104 C 244.715 261.104,245.302 260.928,245.491 260.700 C 245.676 260.478,246.096 260.296,246.425 260.296 C 246.754 260.296,247.242 260.054,247.510 259.758 C 247.799 259.438,248.339 259.219,248.838 259.219 C 249.396 259.219,249.975 258.948,250.562 258.412 C 251.049 257.968,251.606 257.604,251.801 257.604 C 251.995 257.604,252.302 257.427,252.481 257.211 C 252.661 256.995,253.069 256.736,253.389 256.637 C 253.709 256.537,254.425 256.048,254.981 255.550 C 255.536 255.051,256.112 254.643,256.259 254.643 C 256.407 254.643,256.528 254.462,256.528 254.240 C 256.528 254.017,256.709 253.836,256.931 253.836 C 257.153 253.836,257.335 253.654,257.335 253.432 C 257.335 253.210,257.469 253.028,257.632 253.028 C 258.278 253.028,265.680 245.046,265.680 244.349 C 265.680 244.145,266.043 243.629,266.487 243.203 C 266.931 242.778,267.295 242.229,267.295 241.983 C 267.295 241.738,267.537 241.318,267.833 241.050 C 268.129 240.782,268.371 240.318,268.371 240.020 C 268.371 239.721,268.534 239.286,268.734 239.052 C 268.933 238.818,269.371 237.752,269.707 236.682 C 270.044 235.613,270.486 234.599,270.691 234.429 C 270.896 234.259,271.063 233.767,271.063 233.337 C 271.063 232.906,271.245 232.119,271.467 231.587 C 271.689 231.056,271.871 230.009,271.871 229.262 C 271.871 228.345,272.024 227.733,272.341 227.382 C 273.060 226.588,273.060 211.367,272.342 210.573 C 271.987 210.180,271.871 209.584,271.871 208.154 C 271.871 206.796,271.756 206.162,271.467 205.922 C 271.245 205.738,271.063 205.227,271.063 204.787 C 271.063 204.348,270.821 203.680,270.525 203.304 C 270.229 202.927,269.987 202.226,269.987 201.746 C 269.987 201.266,269.805 200.723,269.583 200.538 C 269.361 200.354,269.179 199.991,269.179 199.731 C 269.179 199.471,268.997 199.108,268.775 198.923 C 268.553 198.739,268.371 198.307,268.371 197.964 C 268.371 197.621,268.258 197.270,268.119 197.184 C 267.981 197.099,267.296 196.153,266.597 195.082 C 265.898 194.012,265.194 193.014,265.032 192.866 C 264.870 192.718,264.506 192.173,264.224 191.655 C 263.581 190.477,263.387 190.240,261.607 188.460 C 259.678 186.532,259.516 186.401,258.345 185.845 C 257.111 185.258,257.111 185.249,258.277 184.118 C 258.795 183.616,259.219 183.030,259.219 182.815 C 259.219 182.600,259.643 181.907,260.162 181.274 C 260.680 180.642,261.104 180.000,261.104 179.849 C 261.104 179.697,261.527 179.111,262.044 178.548 C 262.562 177.985,262.986 177.326,262.987 177.085 C 262.987 176.844,263.170 176.497,263.392 176.312 C 263.614 176.128,263.795 175.704,263.795 175.370 C 263.795 175.036,263.977 174.612,264.199 174.428 C 264.421 174.244,264.603 173.754,264.603 173.341 C 264.603 172.927,264.845 172.023,265.141 171.332 C 265.437 170.642,265.680 169.738,265.680 169.324 C 265.680 168.910,265.861 168.421,266.083 168.237 C 266.394 167.979,266.487 167.267,266.487 165.141 C 266.487 163.016,266.580 162.304,266.891 162.046 C 267.210 161.781,267.295 161.016,267.295 158.412 C 267.295 155.808,267.210 155.042,266.891 154.778 C 266.588 154.527,266.487 153.853,266.487 152.086 C 266.487 150.320,266.386 149.646,266.083 149.394 C 265.819 149.175,265.680 148.575,265.680 147.653 C 265.680 146.589,265.549 146.129,265.141 145.760 C 264.787 145.439,264.603 144.931,264.603 144.271 C 264.603 143.709,264.426 143.122,264.199 142.934 C 263.977 142.750,263.795 142.386,263.795 142.127 C 263.795 141.867,263.614 141.503,263.392 141.319 C 263.170 141.135,262.988 140.806,262.988 140.588 C 262.988 140.371,262.746 139.885,262.450 139.508 C 262.153 139.132,261.911 138.666,261.911 138.474 C 261.911 138.282,261.154 137.017,260.229 135.664 C 259.303 134.311,258.287 132.774,257.970 132.249 C 257.180 130.938,252.033 125.787,250.875 125.147 C 250.357 124.862,249.591 124.356,249.173 124.023 C 248.461 123.457,248.139 123.417,244.114 123.387 C 240.194 123.358,239.762 123.307,239.221 122.809 C 238.576 122.216,232.778 119.246,232.265 119.246 C 232.091 119.246,231.272 118.925,230.443 118.532 C 228.967 117.831,228.573 117.702,225.572 116.939 C 221.446 115.889,220.413 115.666,218.295 115.367 C 217.031 115.189,215.837 114.944,215.642 114.823 C 214.889 114.358,200.339 113.718,199.731 114.124 M153.658 127.004 C 152.672 127.549,151.642 128.192,151.370 128.433 C 151.098 128.674,150.511 129.056,150.067 129.280 C 148.462 130.092,148.098 130.772,149.084 131.116 C 149.853 131.384,149.933 131.518,149.933 132.531 C 149.933 133.650,149.934 133.651,151.480 134.207 L 153.028 134.763 153.094 138.781 C 153.165 143.155,153.314 144.367,153.706 143.734 C 153.893 143.431,153.998 143.490,154.209 144.017 C 154.355 144.384,154.482 144.544,154.492 144.372 C 154.512 144.003,155.585 144.223,155.585 144.596 C 155.585 144.736,155.678 144.793,155.790 144.723 C 156.126 144.516,156.768 145.159,157.227 146.164 C 157.686 147.170,157.626 147.904,157.110 147.595 C 156.938 147.491,156.978 147.635,157.201 147.914 C 157.436 148.209,157.464 148.337,157.268 148.219 C 156.848 147.967,156.825 148.373,157.236 148.783 C 157.767 149.315,156.739 149.015,156.049 148.437 C 155.705 148.149,155.812 148.299,156.287 148.769 C 156.761 149.240,157.084 149.690,157.004 149.771 C 156.923 149.851,156.852 154.311,156.846 159.682 L 156.834 169.448 156.678 160.431 C 156.574 154.479,156.414 151.173,156.207 150.707 C 155.921 150.062,153.747 148.048,153.337 148.048 C 152.907 148.048,153.260 148.514,154.236 149.237 C 156.114 150.626,156.124 150.683,156.124 160.673 C 156.124 168.413,156.071 169.583,155.720 169.583 C 155.370 169.583,155.316 168.445,155.316 160.956 C 155.316 151.667,155.303 151.569,153.861 150.222 C 152.984 149.403,152.904 150.027,153.769 150.946 C 154.368 151.584,154.375 151.681,154.455 160.587 L 154.536 169.583 153.849 169.583 L 153.163 169.583 153.163 173.192 L 153.163 176.800 155.653 176.951 C 157.022 177.034,159.505 177.163,161.171 177.239 L 164.199 177.376 164.199 159.770 L 164.199 142.164 162.248 141.103 C 161.174 140.520,158.749 139.229,156.858 138.235 L 153.421 136.427 154.974 135.428 C 155.829 134.878,157.254 134.020,158.143 133.521 C 160.981 131.926,160.925 131.996,159.795 131.458 C 159.004 131.080,158.844 130.880,158.979 130.434 C 159.071 130.129,159.163 129.785,159.183 129.669 C 159.203 129.554,158.432 129.104,157.470 128.670 C 155.766 127.900,155.722 127.854,155.779 126.927 C 155.851 125.774,155.884 125.773,153.658 127.004 M197.119 129.616 C 193.845 130.189,189.256 131.760,185.958 133.437 L 183.042 134.920 183.042 156.154 L 183.042 177.389 185.330 177.389 L 187.618 177.389 187.618 158.168 L 187.618 138.947 189.691 138.083 C 194.928 135.903,200.057 134.966,205.384 135.216 C 215.450 135.689,220.680 138.875,225.317 147.361 L 226.486 149.501 225.122 148.707 C 224.245 148.197,223.169 147.170,222.106 145.830 C 214.936 136.784,200.154 134.406,191.050 140.833 L 190.310 141.356 190.310 159.410 L 190.310 177.465 196.568 177.310 C 217.822 176.783,227.974 170.289,229.649 156.148 C 231.134 143.610,223.998 133.315,211.532 130.007 C 208.611 129.232,200.562 129.013,197.119 129.616 M263.775 144.145 C 263.775 144.517,263.653 144.403,263.381 143.778 C 263.165 143.280,262.992 142.735,262.997 142.567 C 263.014 142.035,263.776 143.582,263.775 144.145 M205.891 143.452 C 206.426 143.589,207.470 143.822,208.210 143.971 C 208.950 144.119,209.919 144.390,210.363 144.573 C 210.808 144.756,211.265 144.885,211.380 144.859 C 211.495 144.834,211.660 144.995,211.745 145.218 C 211.830 145.441,212.009 145.556,212.141 145.474 C 212.274 145.392,212.382 145.460,212.382 145.626 C 212.382 145.791,212.503 145.852,212.651 145.760 C 212.799 145.669,212.921 145.729,212.921 145.895 C 212.921 146.061,213.042 146.121,213.190 146.030 C 213.338 145.938,213.459 146.048,213.459 146.274 C 213.459 146.512,213.615 146.626,213.827 146.544 C 214.049 146.459,214.256 146.634,214.348 146.984 C 214.431 147.303,214.620 147.490,214.767 147.399 C 214.915 147.308,215.104 147.450,215.188 147.715 C 215.272 147.980,215.772 148.641,216.300 149.184 C 216.827 149.727,217.277 150.412,217.299 150.706 C 217.321 151.000,217.405 151.224,217.485 151.203 C 217.784 151.124,218.843 151.846,218.843 152.129 C 218.843 152.320,218.704 152.306,218.439 152.086 C 217.806 151.561,217.967 151.943,218.620 152.515 C 218.941 152.798,219.116 152.877,219.008 152.692 C 218.899 152.507,218.909 152.359,219.029 152.364 C 219.367 152.377,220.196 153.066,220.050 153.212 C 219.923 153.338,220.139 153.389,221.265 153.496 C 221.561 153.524,221.803 153.716,221.803 153.922 C 221.803 154.128,221.955 154.239,222.140 154.169 C 222.327 154.097,222.683 154.443,222.942 154.948 C 223.198 155.446,223.289 155.855,223.144 155.855 C 222.999 155.855,222.910 155.945,222.945 156.057 C 223.043 156.358,222.184 157.492,221.999 157.307 C 221.912 157.219,221.906 157.402,221.988 157.712 C 222.069 158.023,222.012 158.277,221.860 158.277 C 221.709 158.277,221.646 158.550,221.721 158.883 C 221.827 159.356,221.736 159.301,221.306 158.631 C 221.003 158.159,220.495 157.634,220.177 157.464 C 219.859 157.293,218.063 155.680,216.185 153.879 C 211.309 149.201,208.419 147.909,203.236 148.092 C 197.741 148.287,197.756 148.255,197.556 160.162 L 197.401 169.448 197.400 158.615 C 197.400 152.657,197.300 147.690,197.176 147.579 C 197.053 147.467,197.025 147.502,197.113 147.658 C 197.201 147.813,197.159 148.115,197.021 148.330 C 196.828 148.629,196.788 148.579,196.852 148.123 C 196.898 147.793,197.006 147.453,197.093 147.366 C 197.180 147.280,197.080 146.867,196.872 146.449 C 196.462 145.627,196.615 144.818,197.180 144.818 C 197.374 144.818,197.573 144.697,197.623 144.548 C 197.874 143.794,204.033 142.977,205.891 143.452 M264.630 146.545 C 266.807 154.780,266.971 162.113,265.128 168.910 C 264.968 169.502,264.735 170.410,264.611 170.929 C 264.331 172.102,263.800 173.626,263.485 174.159 C 263.354 174.381,263.069 174.948,262.852 175.419 C 262.635 175.890,262.335 176.351,262.184 176.444 C 262.034 176.537,261.911 176.894,261.911 177.237 C 261.911 177.581,261.721 178.019,261.490 178.211 C 261.258 178.404,260.886 178.912,260.664 179.342 C 259.458 181.675,256.487 184.998,255.714 184.879 L 255.145 184.791 255.696 184.202 C 258.019 181.724,260.395 178.293,261.720 175.505 C 263.435 171.894,263.732 170.923,264.843 165.276 C 265.811 160.352,265.382 149.494,264.083 146.078 C 263.925 145.662,263.799 145.178,263.804 145.003 C 263.816 144.536,264.375 145.580,264.630 146.545 M202.089 147.431 C 202.424 147.496,202.909 147.493,203.166 147.426 C 203.423 147.358,203.149 147.306,202.557 147.309 C 201.965 147.312,201.754 147.367,202.089 147.431 M204.240 147.431 C 204.573 147.495,205.118 147.495,205.451 147.431 C 205.784 147.367,205.511 147.314,204.845 147.314 C 204.179 147.314,203.906 147.367,204.240 147.431 M155.740 149.151 C 156.173 149.683,156.582 150.073,156.648 150.017 C 156.715 149.961,156.360 149.526,155.860 149.049 L 154.952 148.183 155.740 149.151 M210.309 149.887 C 212.241 150.825,213.108 151.467,215.023 153.378 C 216.314 154.666,217.972 156.205,218.709 156.797 C 221.307 158.886,221.339 158.945,220.662 160.431 L 220.232 161.373 220.210 160.466 C 220.193 159.764,219.931 159.317,219.044 158.481 C 218.415 157.887,216.615 156.145,215.043 154.609 C 213.472 153.073,212.009 151.817,211.793 151.817 C 211.576 151.817,211.115 151.514,210.767 151.144 C 210.419 150.774,209.908 150.471,209.630 150.471 C 209.353 150.471,208.738 150.270,208.264 150.025 C 207.608 149.685,206.611 149.573,204.085 149.554 L 200.767 149.529 199.845 150.534 L 198.923 151.540 198.923 160.705 C 198.923 169.787,198.918 169.868,198.385 169.583 C 197.241 168.971,197.688 150.916,198.873 149.843 C 200.878 148.029,206.526 148.051,210.309 149.887 M205.286 150.066 C 205.710 150.287,206.494 150.468,207.030 150.469 C 207.593 150.470,208.291 150.698,208.687 151.009 C 209.064 151.306,209.550 151.548,209.767 151.548 C 209.985 151.548,210.314 151.729,210.498 151.952 C 210.682 152.174,211.032 152.355,211.276 152.355 C 211.519 152.355,213.099 153.740,214.787 155.433 C 216.475 157.126,218.123 158.578,218.450 158.660 C 220.612 159.203,218.736 163.928,215.747 165.464 C 215.303 165.692,214.728 166.064,214.470 166.290 C 213.791 166.886,209.002 168.472,207.268 168.675 C 206.454 168.771,205.606 168.940,205.384 169.051 C 205.162 169.162,203.859 169.339,202.490 169.446 L 200.000 169.640 200.000 160.548 C 200.000 150.685,200.032 150.471,201.489 150.471 C 201.818 150.471,202.238 150.289,202.423 150.067 C 202.852 149.550,204.295 149.549,205.286 150.066 M216.958 153.028 C 218.210 154.287,219.295 155.316,219.369 155.316 C 219.443 155.316,218.479 154.287,217.227 153.028 C 215.976 151.770,214.891 150.740,214.817 150.740 C 214.743 150.740,215.706 151.770,216.958 153.028 M216.824 153.701 C 218.150 155.034,219.296 156.124,219.370 156.124 C 219.444 156.124,218.419 155.034,217.093 153.701 C 215.767 152.369,214.621 151.279,214.547 151.279 C 214.473 151.279,215.497 152.369,216.824 153.701 M264.877 161.186 C 264.701 163.213,264.447 165.417,264.311 166.083 C 264.176 166.750,263.938 167.931,263.782 168.708 C 263.186 171.683,260.623 177.223,258.497 180.131 C 256.617 182.701,254.074 185.311,253.831 184.918 C 253.689 184.689,253.582 184.683,253.450 184.897 C 253.349 185.061,253.084 185.195,252.862 185.195 C 252.611 185.195,252.534 185.068,252.660 184.859 C 252.798 184.630,252.716 184.641,252.407 184.892 C 252.156 185.095,251.952 185.179,251.952 185.078 C 251.952 184.977,251.800 184.989,251.615 185.104 C 251.075 185.442,250.649 185.437,250.361 185.090 C 250.058 184.726,250.071 183.551,250.376 183.739 C 250.484 183.806,250.527 184.098,250.471 184.388 C 250.415 184.677,250.462 184.972,250.576 185.042 C 250.689 185.112,250.773 184.827,250.761 184.407 C 250.744 183.795,251.120 183.294,252.665 181.863 C 254.630 180.043,255.526 179.490,254.355 180.821 C 253.731 181.529,253.744 181.526,254.643 180.754 C 255.160 180.310,255.644 179.897,255.719 179.836 C 255.793 179.775,255.643 179.802,255.384 179.895 C 255.124 179.988,254.913 179.947,254.913 179.803 C 254.913 179.660,255.041 179.542,255.198 179.542 C 255.354 179.542,255.412 179.427,255.325 179.287 C 255.136 178.981,255.992 178.491,256.436 178.651 C 256.607 178.713,256.838 178.617,256.948 178.438 C 257.084 178.219,257.026 178.177,256.771 178.309 C 256.563 178.417,256.605 178.332,256.864 178.119 C 257.123 177.907,257.335 177.595,257.335 177.427 C 257.335 177.258,257.463 177.120,257.620 177.120 C 257.777 177.120,257.843 177.221,257.767 177.344 C 257.690 177.467,257.810 177.568,258.033 177.568 C 258.385 177.568,258.388 177.518,258.049 177.180 C 257.715 176.846,257.713 176.729,258.038 176.350 C 258.246 176.107,258.391 175.848,258.359 175.774 C 258.211 175.425,259.338 174.490,259.730 174.637 C 260.106 174.777,260.113 174.739,259.787 174.338 C 259.454 173.929,259.469 173.899,259.922 174.068 C 260.387 174.243,260.396 174.217,260.027 173.755 C 259.660 173.297,259.667 173.267,260.100 173.429 C 260.519 173.587,260.539 173.535,260.263 173.009 L 259.949 172.409 260.583 172.948 L 261.217 173.486 260.715 172.678 L 260.213 171.871 260.832 172.409 L 261.451 172.948 261.143 172.360 C 260.711 171.536,260.774 171.230,261.247 171.855 C 261.703 172.458,261.773 172.214,261.363 171.449 C 261.163 171.076,261.172 170.929,261.392 170.929 C 261.567 170.929,261.626 170.738,261.530 170.487 C 261.382 170.101,261.418 170.092,261.821 170.420 C 262.226 170.749,262.260 170.738,262.105 170.323 C 262.005 170.057,262.054 169.852,262.218 169.852 C 262.377 169.852,262.437 169.670,262.352 169.448 C 262.267 169.226,262.301 169.044,262.428 169.044 C 262.555 169.044,262.739 168.590,262.838 168.035 C 263.153 166.256,263.283 165.964,263.572 166.384 C 263.744 166.634,263.769 166.457,263.648 165.848 C 263.531 165.254,263.564 164.999,263.745 165.110 C 264.183 165.381,265.090 158.310,264.699 157.677 C 264.629 157.563,264.661 157.324,264.771 157.147 C 265.170 156.501,265.196 157.503,264.877 161.186 M259.129 175.083 C 259.048 175.293,259.187 175.626,259.437 175.822 C 259.840 176.137,259.853 176.127,259.545 175.733 C 259.271 175.382,259.268 175.264,259.531 175.176 C 259.764 175.099,259.776 175.010,259.571 174.883 C 259.409 174.782,259.210 174.872,259.129 175.083 M258.412 176.312 C 258.253 176.608,258.158 176.860,258.200 176.871 C 258.980 177.080,259.255 177.048,258.985 176.778 C 258.587 176.380,258.592 175.956,258.992 176.203 C 259.184 176.322,259.229 176.277,259.110 176.085 C 258.846 175.657,258.745 175.690,258.412 176.312 M259.687 176.920 L 259.212 177.793 259.754 177.157 C 260.215 176.617,260.462 176.039,260.229 176.045 C 260.192 176.046,259.948 176.439,259.687 176.920 M258.142 179.341 C 257.746 179.882,257.681 180.070,257.971 179.834 C 258.413 179.475,259.080 178.466,258.876 178.466 C 258.824 178.466,258.494 178.859,258.142 179.341 M141.848 183.205 C 141.402 184.556,141.638 190.891,142.182 192.194 C 142.399 192.712,142.856 194.287,143.197 195.693 C 144.673 201.765,146.756 203.647,152.707 204.286 C 154.328 204.460,154.960 204.653,155.466 205.129 L 156.124 205.747 156.115 217.745 C 156.108 227.869,156.045 229.826,155.711 230.267 C 155.362 230.729,155.316 229.421,155.316 218.974 L 155.316 207.159 154.456 206.271 C 153.807 205.602,153.365 205.384,152.658 205.384 C 152.142 205.384,151.349 205.265,150.894 205.120 C 150.439 204.974,149.361 204.665,148.499 204.433 C 145.747 203.692,143.060 200.357,142.542 197.039 C 142.321 195.629,141.977 194.437,141.284 192.690 C 140.228 190.026,140.415 185.729,141.732 182.424 C 142.087 181.533,142.184 182.187,141.848 183.205 M184.859 185.107 L 183.042 185.220 183.042 211.183 L 183.042 237.147 185.330 237.147 L 187.618 237.147 187.618 214.034 L 187.618 190.922 189.031 190.760 C 200.604 189.429,215.490 190.982,221.669 194.164 C 225.609 196.194,232.584 204.230,230.666 204.531 C 230.302 204.588,229.940 204.393,229.666 203.993 C 226.172 198.878,219.826 195.227,212.248 193.970 C 207.106 193.118,195.836 192.682,191.723 193.176 L 190.310 193.346 190.310 215.279 L 190.310 237.212 195.895 237.031 C 213.992 236.445,219.327 235.256,225.352 230.468 C 231.027 225.958,233.245 220.340,233.234 210.498 C 233.215 191.279,224.343 185.357,195.155 185.076 C 190.491 185.032,185.858 185.046,184.859 185.107 M142.410 188.829 C 142.430 189.514,142.467 189.555,142.652 189.098 C 142.835 188.645,142.902 188.724,143.071 189.596 C 143.220 190.358,143.341 190.536,143.531 190.269 C 143.718 190.004,143.754 190.065,143.661 190.491 C 143.568 190.917,143.638 191.037,143.916 190.930 C 144.239 190.806,144.245 190.900,143.956 191.535 C 143.702 192.091,143.694 192.312,143.924 192.389 C 144.142 192.462,144.161 192.748,143.988 193.351 C 143.670 194.459,143.681 194.857,144.015 194.347 C 144.207 194.054,144.238 194.164,144.130 194.751 C 144.046 195.205,144.166 196.030,144.404 196.635 C 144.746 197.506,144.799 197.558,144.684 196.904 C 144.557 196.186,144.577 196.156,144.859 196.635 C 145.263 197.322,145.665 197.585,145.995 197.381 C 146.147 197.287,146.182 197.413,146.078 197.682 C 145.973 197.956,146.009 198.077,146.167 197.980 C 146.479 197.786,147.583 198.492,147.343 198.731 C 147.254 198.821,147.406 198.892,147.682 198.888 C 148.462 198.879,149.647 199.087,149.825 199.264 C 149.913 199.352,150.155 199.359,150.363 199.280 C 150.572 199.200,150.742 199.298,150.744 199.500 C 150.748 199.808,150.785 199.808,150.980 199.500 C 151.107 199.299,151.278 199.243,151.359 199.374 C 151.442 199.508,152.552 199.529,153.883 199.422 C 156.540 199.208,157.470 199.334,157.470 199.910 C 157.470 200.145,157.604 200.225,157.806 200.111 C 158.072 199.961,158.074 199.995,157.813 200.277 C 157.591 200.516,157.570 200.739,157.749 200.954 C 157.932 201.175,157.867 201.390,157.540 201.647 C 157.101 201.991,157.095 201.979,157.457 201.480 C 157.760 201.062,157.764 201.016,157.473 201.276 C 157.083 201.623,156.827 202.519,157.179 202.301 C 157.290 202.233,157.380 202.348,157.380 202.557 C 157.380 202.766,157.279 202.875,157.156 202.799 C 156.876 202.626,156.907 201.202,156.863 216.151 L 156.826 228.937 156.677 217.201 C 156.498 203.161,156.844 204.219,152.287 203.747 C 147.119 203.213,144.958 201.237,143.623 195.828 C 143.404 194.939,142.917 193.079,142.541 191.693 C 141.847 189.134,141.611 186.821,142.127 187.618 C 142.270 187.840,142.398 188.385,142.410 188.829 M256.021 194.011 C 261.383 199.638,263.606 205.922,263.615 215.478 C 263.633 234.097,251.879 247.833,233.109 251.124 C 227.126 252.173,225.268 252.221,190.317 252.221 L 156.195 252.221 155.487 251.150 C 155.097 250.561,154.778 249.955,154.778 249.804 C 154.778 249.618,165.655 249.529,188.276 249.529 C 234.653 249.529,238.387 249.079,247.848 242.351 C 263.013 231.567,265.686 208.607,253.479 193.978 C 252.436 192.728,252.409 192.650,252.893 192.296 C 253.711 191.697,253.933 191.819,256.021 194.011 M144.818 197.950 C 144.818 198.239,145.619 199.731,145.774 199.731 C 145.848 199.731,145.709 199.337,145.464 198.856 C 144.964 197.874,144.818 197.669,144.818 197.950 M146.276 198.422 C 146.147 198.630,146.198 198.665,146.427 198.524 C 146.659 198.380,146.728 198.433,146.637 198.684 C 146.562 198.890,146.334 199.017,146.131 198.968 C 145.927 198.919,145.855 198.973,145.970 199.088 C 146.375 199.493,146.862 199.393,146.900 198.897 C 146.945 198.290,146.546 197.985,146.276 198.422 M206.326 199.427 C 211.093 199.927,211.356 199.965,213.190 200.403 C 215.916 201.054,217.516 201.636,217.344 201.913 C 217.258 202.053,217.290 202.133,217.415 202.093 C 217.998 201.903,219.919 203.064,219.923 203.608 C 219.927 204.072,219.974 204.101,220.193 203.769 C 220.415 203.430,220.484 203.460,220.619 203.952 C 220.718 204.312,220.925 204.483,221.157 204.394 C 221.371 204.312,221.534 204.414,221.534 204.629 C 221.534 204.838,221.954 205.415,222.466 205.912 C 222.978 206.408,223.323 206.935,223.232 207.083 C 223.141 207.230,223.180 207.281,223.320 207.194 C 223.459 207.108,224.100 207.510,224.745 208.088 C 225.389 208.665,226.051 209.061,226.215 208.967 C 226.380 208.873,226.423 208.897,226.312 209.020 C 226.200 209.143,226.321 209.486,226.581 209.782 C 226.919 210.169,226.938 210.257,226.649 210.094 C 226.361 209.932,226.381 210.022,226.718 210.408 C 227.170 210.925,227.169 210.969,226.689 211.404 C 226.392 211.673,226.217 212.139,226.261 212.545 C 226.314 213.022,226.229 213.189,225.981 213.095 C 225.699 212.986,225.680 213.153,225.888 213.907 C 226.270 215.290,225.991 215.284,225.318 213.895 C 224.379 211.954,219.594 207.669,216.888 206.345 C 211.605 203.761,198.960 202.731,197.933 204.803 C 197.812 205.048,197.646 210.579,197.565 217.093 L 197.418 228.937 197.388 216.367 C 197.371 209.453,197.267 203.651,197.157 203.472 C 197.042 203.286,197.069 203.217,197.221 203.311 C 197.541 203.508,197.504 202.520,197.181 202.226 C 197.055 202.112,197.035 202.162,197.135 202.337 C 197.235 202.512,197.164 202.743,196.976 202.851 C 196.789 202.959,196.718 202.955,196.820 202.842 C 196.922 202.729,196.887 202.328,196.744 201.951 C 196.504 201.320,196.521 201.295,196.963 201.638 C 197.419 201.991,197.420 201.983,196.982 201.466 C 196.465 200.857,196.589 199.797,197.237 199.276 C 197.713 198.894,201.913 198.964,206.326 199.427 M146.569 200.763 C 147.012 201.257,147.618 201.787,147.914 201.940 C 148.210 202.094,148.331 202.113,148.183 201.984 C 148.035 201.854,147.430 201.325,146.838 200.807 L 145.762 199.865 146.569 200.763 M198.654 203.242 C 198.359 203.442,198.468 203.467,199.058 203.335 C 200.048 203.114,200.262 202.960,199.574 202.965 C 199.290 202.967,198.876 203.092,198.654 203.242 M203.166 203.151 C 203.501 203.216,203.985 203.213,204.243 203.146 C 204.500 203.079,204.226 203.026,203.634 203.029 C 203.042 203.032,202.831 203.087,203.166 203.151 M270.564 205.397 C 271.687 209.583,271.927 211.448,272.052 216.958 C 272.205 223.699,271.567 229.919,270.450 232.577 C 269.843 234.022,269.415 235.306,269.196 236.339 C 268.288 240.622,261.891 248.985,255.550 254.180 C 253.801 255.613,249.301 258.412,248.746 258.412 C 248.615 258.412,247.738 258.794,246.797 259.262 C 245.857 259.729,244.724 260.203,244.280 260.315 C 243.836 260.427,243.079 260.650,242.598 260.811 C 242.116 260.972,241.329 261.235,240.848 261.396 C 239.428 261.872,238.176 262.202,236.743 262.479 C 233.044 263.195,230.600 263.577,228.398 263.785 C 225.208 264.087,157.999 264.094,156.258 263.793 C 150.653 262.824,149.976 262.225,146.367 255.047 L 143.661 249.664 143.657 247.376 C 143.650 243.324,144.444 242.662,144.601 246.589 L 144.724 249.664 147.098 254.466 C 150.091 260.522,151.454 261.889,155.316 262.708 C 157.416 263.153,230.012 262.962,231.763 262.507 C 232.429 262.334,234.307 261.941,235.935 261.635 C 238.876 261.081,241.575 260.310,244.415 259.213 C 245.229 258.898,246.199 258.545,246.570 258.429 C 252.004 256.726,261.727 248.200,265.266 242.033 C 269.772 234.181,271.074 228.813,271.051 218.170 C 271.042 214.320,270.928 210.384,270.796 209.421 C 270.504 207.283,269.863 204.095,269.579 203.365 C 269.414 202.943,269.441 202.893,269.705 203.136 C 269.890 203.307,270.277 204.324,270.564 205.397 M205.384 204.326 C 213.670 204.861,216.926 206.106,221.633 210.538 C 224.682 213.410,225.303 214.268,225.303 215.610 C 225.303 216.587,224.186 220.202,224.029 219.732 C 223.970 219.555,224.051 219.170,224.209 218.875 C 224.646 218.057,224.555 215.434,224.055 214.455 C 222.662 211.729,216.814 207.422,213.190 206.453 C 212.524 206.274,211.676 206.024,211.306 205.896 C 210.935 205.768,208.876 205.539,206.729 205.388 C 204.583 205.237,202.402 205.044,201.884 204.958 C 201.163 204.838,200.722 204.951,200.000 205.440 L 199.058 206.078 198.988 217.709 C 198.949 224.106,198.828 229.339,198.719 229.336 C 197.847 229.318,197.824 228.983,197.903 217.179 C 197.988 204.406,197.937 204.801,199.563 204.330 C 200.694 204.002,200.380 204.002,205.384 204.326 M204.003 205.746 C 204.210 205.995,205.363 206.162,207.712 206.281 C 210.185 206.406,211.244 206.565,211.571 206.861 C 211.847 207.111,212.544 207.268,213.380 207.268 C 214.260 207.268,214.857 207.410,215.074 207.672 C 215.258 207.894,215.613 208.075,215.862 208.075 C 216.111 208.075,216.725 208.499,217.227 209.017 C 217.730 209.536,218.359 209.960,218.626 209.960 C 218.893 209.960,219.112 210.141,219.112 210.363 C 219.112 210.585,219.263 210.770,219.448 210.775 C 219.633 210.779,220.633 211.626,221.669 212.658 L 223.553 214.534 223.537 217.216 C 223.525 219.341,223.427 220.002,223.066 220.401 C 222.816 220.677,222.611 221.091,222.611 221.321 C 222.611 223.527,215.680 227.868,211.326 228.389 C 210.523 228.485,209.675 228.665,209.442 228.788 C 209.209 228.912,206.989 229.101,204.509 229.209 L 200.000 229.406 200.000 217.887 C 200.000 204.673,199.869 205.384,202.297 205.384 C 203.146 205.384,203.822 205.527,204.003 205.746 M221.265 208.748 C 221.767 209.266,222.239 209.690,222.313 209.690 C 222.387 209.690,222.037 209.266,221.534 208.748 C 221.032 208.230,220.561 207.806,220.487 207.806 C 220.413 207.806,220.763 208.230,221.265 208.748 M270.714 219.919 C 270.424 231.883,267.389 240.003,260.309 247.761 C 252.485 256.334,244.539 260.160,230.346 262.189 C 224.693 262.997,158.153 263.014,155.083 262.208 C 151.909 261.374,149.746 259.481,148.592 256.527 C 148.274 255.713,147.474 254.045,146.814 252.819 C 145.337 250.074,144.237 246.177,145.087 246.703 C 145.236 246.794,145.359 247.195,145.361 247.593 C 145.363 247.992,145.495 248.499,145.653 248.721 C 145.885 249.046,145.916 249.006,145.809 248.519 C 145.736 248.186,145.786 247.981,145.920 248.064 C 146.054 248.147,146.164 248.397,146.164 248.619 C 146.164 248.845,146.295 248.942,146.462 248.838 C 146.666 248.712,146.700 248.856,146.569 249.293 C 146.382 249.920,146.387 249.922,146.810 249.394 L 147.242 248.856 147.067 249.394 C 146.929 249.820,146.964 249.867,147.235 249.617 C 147.847 249.052,148.371 249.806,147.829 250.471 C 147.587 250.767,147.562 250.858,147.773 250.673 C 148.419 250.106,148.701 250.300,148.165 250.942 C 147.887 251.275,147.831 251.396,148.042 251.211 C 148.660 250.668,148.784 250.810,148.697 251.959 C 148.650 252.583,148.722 252.977,148.867 252.887 C 149.009 252.799,149.042 252.933,148.942 253.193 C 148.821 253.506,148.866 253.592,149.079 253.460 C 149.253 253.353,149.394 253.387,149.394 253.535 C 149.394 253.683,149.291 253.868,149.165 253.946 C 148.853 254.139,148.266 252.799,148.488 252.402 C 148.621 252.166,148.583 252.163,148.335 252.391 C 148.074 252.631,148.121 252.920,148.552 253.737 C 148.854 254.310,149.107 254.627,149.113 254.441 C 149.120 254.256,149.253 254.105,149.410 254.105 C 149.567 254.105,149.620 254.226,149.529 254.374 C 149.437 254.522,149.495 254.643,149.657 254.643 C 149.868 254.643,149.870 254.796,149.664 255.182 C 149.374 255.724,149.708 256.828,150.143 256.762 C 150.642 256.687,151.028 256.818,150.903 257.021 C 150.826 257.144,150.938 257.245,151.152 257.245 C 151.430 257.245,151.461 257.151,151.261 256.910 C 151.067 256.677,151.081 256.515,151.307 256.375 C 151.501 256.256,151.561 256.289,151.456 256.458 C 151.360 256.613,151.470 256.813,151.701 256.901 C 151.932 256.990,152.057 257.164,151.980 257.288 C 151.904 257.413,152.005 257.515,152.207 257.515 C 152.426 257.515,152.512 257.343,152.421 257.088 C 152.316 256.795,152.475 256.849,152.930 257.263 C 153.333 257.630,153.822 257.819,154.184 257.750 C 154.607 257.668,154.779 257.767,154.782 258.091 C 154.784 258.350,154.871 258.431,154.984 258.277 C 155.258 257.905,156.124 257.789,156.124 258.125 C 156.124 258.311,167.670 258.377,191.857 258.329 C 230.915 258.252,229.013 258.322,236.070 256.689 C 237.032 256.466,238.239 256.211,238.751 256.123 C 239.263 256.034,239.857 255.816,240.071 255.639 C 240.285 255.462,240.471 255.356,240.486 255.406 C 240.532 255.566,242.118 255.114,242.463 254.842 C 242.648 254.697,242.799 254.647,242.799 254.731 C 242.799 254.816,243.208 254.714,243.707 254.506 C 244.207 254.297,244.691 254.202,244.784 254.295 C 244.877 254.388,244.953 254.315,244.953 254.134 C 244.953 253.952,245.074 253.879,245.222 253.970 C 245.370 254.062,245.491 254.023,245.491 253.883 C 245.491 253.671,245.836 253.495,246.837 253.195 C 246.911 253.173,247.137 253.050,247.338 252.922 C 247.572 252.775,247.790 252.825,247.940 253.061 C 248.111 253.332,248.181 253.251,248.198 252.759 C 248.219 252.141,248.240 252.130,248.452 252.624 C 248.650 253.085,248.686 253.095,248.702 252.692 C 248.713 252.433,248.903 252.221,249.125 252.221 C 249.347 252.221,249.529 252.092,249.529 251.936 C 249.529 251.779,249.651 251.726,249.800 251.818 C 249.949 251.910,250.143 251.797,250.232 251.566 C 250.320 251.336,250.502 251.215,250.636 251.297 C 250.769 251.380,250.955 251.248,251.049 251.004 C 251.181 250.658,251.267 250.638,251.435 250.910 C 251.589 251.159,251.738 251.032,251.952 250.471 C 252.185 249.856,252.304 249.767,252.491 250.069 C 252.692 250.394,252.758 250.382,252.908 249.992 C 253.006 249.738,253.235 249.529,253.417 249.529 C 253.599 249.529,254.967 248.378,256.458 246.972 C 259.067 244.511,260.290 243.612,258.930 245.155 L 258.277 245.895 259.009 245.250 C 259.412 244.896,259.686 244.517,259.619 244.408 C 259.552 244.300,259.991 243.884,260.594 243.485 C 261.198 243.086,261.622 242.689,261.536 242.604 C 261.451 242.519,261.591 242.285,261.848 242.085 C 262.280 241.748,262.275 241.733,261.777 241.877 C 261.278 242.021,261.274 242.010,261.723 241.722 C 262.097 241.482,262.310 241.493,262.650 241.769 C 263.026 242.074,263.055 242.067,262.845 241.723 C 262.317 240.856,262.535 240.301,263.158 240.924 C 263.350 241.116,263.437 241.077,263.437 240.801 C 263.437 240.581,263.336 240.463,263.212 240.539 C 263.089 240.615,262.988 240.476,262.988 240.229 C 262.988 239.913,263.127 239.834,263.459 239.960 C 263.816 240.096,263.855 240.064,263.620 239.827 C 263.196 239.399,263.978 238.478,264.575 238.701 C 264.962 238.846,264.965 238.811,264.603 238.358 C 264.233 237.896,264.242 237.870,264.708 238.045 C 265.144 238.208,265.167 238.175,264.872 237.820 C 264.577 237.464,264.601 237.431,265.036 237.595 C 265.488 237.764,265.503 237.734,265.171 237.326 C 264.838 236.917,264.853 236.887,265.305 237.056 C 265.771 237.231,265.780 237.205,265.410 236.743 C 265.044 236.285,265.050 236.255,265.484 236.417 C 265.898 236.573,265.923 236.517,265.671 235.997 C 265.389 235.416,265.397 235.417,265.934 236.033 C 266.599 236.796,266.671 236.452,266.035 235.544 C 265.625 234.958,265.623 234.914,266.021 235.067 C 266.345 235.191,266.422 235.116,266.317 234.778 C 266.201 234.406,266.254 234.418,266.600 234.843 C 266.834 235.130,267.026 235.292,267.026 235.201 C 267.026 235.111,267.098 234.815,267.186 234.544 C 267.303 234.182,267.277 234.146,267.088 234.410 C 266.880 234.701,266.799 234.685,266.662 234.329 C 266.551 234.039,266.598 233.954,266.802 234.079 C 267.012 234.209,267.062 234.084,266.958 233.689 C 266.865 233.333,266.912 233.173,267.080 233.277 C 267.252 233.383,267.287 233.209,267.175 232.806 C 267.001 232.177,267.005 232.176,267.443 232.705 C 267.881 233.234,267.886 233.233,267.698 232.604 C 267.563 232.155,267.598 232.022,267.815 232.156 C 268.033 232.290,268.074 232.121,267.957 231.584 C 267.822 230.971,267.851 230.900,268.102 231.225 C 268.355 231.551,268.384 231.486,268.254 230.888 C 268.152 230.423,268.205 230.148,268.395 230.148 C 268.562 230.148,268.629 229.966,268.543 229.744 C 268.458 229.522,268.506 229.341,268.649 229.341 C 268.792 229.341,268.912 229.129,268.914 228.869 C 268.917 228.464,268.957 228.454,269.199 228.802 C 269.407 229.101,269.434 228.969,269.301 228.297 C 269.174 227.654,269.210 227.444,269.426 227.577 C 269.641 227.710,269.690 227.426,269.593 226.601 C 269.484 225.666,269.507 225.570,269.714 226.110 C 269.944 226.714,269.963 226.681,269.900 225.793 C 269.862 225.248,269.909 224.851,270.005 224.911 C 270.296 225.090,270.523 221.989,270.565 217.255 C 270.587 214.797,270.660 213.149,270.727 213.594 C 270.793 214.038,270.788 216.884,270.714 219.919 M260.834 243.069 C 260.183 243.578,259.758 243.741,259.758 243.481 C 259.758 243.351,261.133 242.556,261.373 242.547 C 261.447 242.544,261.205 242.779,260.834 243.069 M260.149 246.904 L 259.085 248.048 260.229 246.984 C 261.293 245.995,261.497 245.760,261.293 245.760 C 261.249 245.760,260.734 246.275,260.149 246.904 M255.573 251.480 L 254.509 252.624 255.653 251.560 C 256.282 250.975,256.797 250.460,256.797 250.416 C 256.797 250.213,256.562 250.417,255.573 251.480 M150.008 255.653 C 149.848 256.080,149.879 256.086,150.329 255.720 C 150.799 255.339,150.806 255.350,150.454 255.915 C 150.145 256.411,150.043 256.445,149.858 256.115 C 149.735 255.895,149.709 255.596,149.799 255.449 C 150.068 255.015,150.199 255.144,150.008 255.653 M152.587 260.549 C 152.937 260.854,153.350 261.104,153.507 261.104 C 153.838 261.104,153.822 261.090,152.759 260.468 L 151.952 259.995 152.587 260.549 M174.899 261.575 C 184.263 261.614,199.586 261.614,208.950 261.575 C 218.314 261.535,210.653 261.503,191.925 261.503 C 173.197 261.503,165.535 261.535,174.899 261.575 M174.474 262.113 C 184.049 262.152,199.796 262.152,209.468 262.113 C 219.139 262.074,211.306 262.042,192.059 262.042 C 172.813 262.042,164.900 262.074,174.474 262.113 " stroke="none" fill="#219e5c" fill-rule="evenodd"></path><path id="path1" d="M71.871 92.480 C 71.871 92.563,74.596 95.825,77.927 99.728 L 83.984 106.824 83.984 125.129 L 83.984 143.434 82.436 143.626 C 75.027 144.549,69.830 148.628,66.603 156.053 C 65.639 158.270,65.629 158.146,66.937 160.229 L 67.571 161.239 69.115 159.981 C 73.371 156.515,77.289 154.808,82.032 154.356 C 84.759 154.096,85.085 155.122,82.374 155.429 C 78.777 155.836,75.485 157.488,72.261 160.505 C 69.612 162.983,69.631 162.835,71.689 164.986 L 73.257 166.625 74.381 165.712 C 77.317 163.327,80.456 161.740,82.840 161.436 L 83.984 161.289 83.987 179.904 L 83.990 198.520 76.517 205.841 L 69.044 213.162 93.338 213.176 C 106.699 213.183,117.631 213.117,117.631 213.028 C 117.631 212.938,116.723 211.777,115.612 210.446 C 112.757 207.024,113.108 207.079,116.513 210.586 C 119.869 214.044,121.400 215.736,121.400 215.989 C 121.400 216.087,110.074 216.133,96.231 216.091 C 82.389 216.050,71.066 216.077,71.069 216.151 C 71.072 216.225,71.770 217.557,72.620 219.112 L 74.166 221.938 102.090 222.007 C 117.448 222.044,130.010 221.984,130.006 221.872 C 130.001 221.760,126.428 216.708,122.065 210.644 L 114.132 199.619 114.132 180.967 L 114.132 162.315 123.437 162.315 L 132.742 162.315 132.560 161.743 C 132.421 161.304,132.464 161.223,132.744 161.395 C 133.033 161.573,140.043 167.407,142.194 169.260 C 142.642 169.646,142.665 168.646,142.665 148.754 L 142.665 127.841 134.066 135.522 L 125.468 143.203 119.800 143.203 L 114.132 143.203 114.132 127.078 L 114.132 110.954 117.026 110.756 C 130.422 109.841,139.074 111.502,148.023 116.707 C 149.820 117.752,149.859 117.734,149.247 116.151 C 149.133 115.855,149.109 115.673,149.193 115.747 C 149.421 115.947,152.411 120.532,153.273 122.005 C 153.685 122.709,154.106 123.284,154.210 123.284 C 154.795 123.284,156.582 120.178,158.114 116.498 C 160.540 110.674,167.068 98.349,170.596 92.934 L 170.991 92.328 121.431 92.328 C 94.173 92.328,71.871 92.397,71.871 92.480 M172.098 98.991 C 164.101 107.716,158.638 116.993,156.417 125.618 L 155.920 127.549 157.517 128.241 L 159.113 128.933 160.116 128.422 C 160.984 127.979,161.243 127.606,162.028 125.664 C 164.983 118.361,168.843 111.774,174.904 103.688 C 176.602 101.424,177.947 99.544,177.892 99.512 C 177.837 99.481,177.103 98.820,176.261 98.045 C 174.343 96.280,174.646 96.211,172.098 98.991 M131.629 104.157 C 137.053 105.015,140.103 106.207,143.001 108.604 C 145.061 110.306,145.494 111.173,143.540 109.681 C 137.998 105.448,125.986 103.778,110.565 105.096 L 108.210 105.297 108.210 124.250 L 108.210 143.203 107.133 143.203 L 106.057 143.203 106.057 123.393 L 106.057 103.582 117.833 103.710 C 124.938 103.787,130.411 103.965,131.629 104.157 M143.472 150.936 L 143.472 172.187 146.097 173.082 C 147.540 173.574,148.873 174.031,149.058 174.097 C 149.325 174.192,149.394 169.847,149.394 152.948 L 149.394 131.679 147.107 130.852 C 145.848 130.396,144.516 129.948,144.146 129.855 L 143.472 129.686 143.472 150.936 M125.639 155.320 C 126.120 155.758,126.514 156.179,126.514 156.255 C 126.514 156.331,122.396 156.393,117.362 156.393 L 108.210 156.393 108.210 178.600 C 108.210 190.814,108.109 200.808,107.986 200.808 C 107.863 200.808,107.378 200.330,106.909 199.747 L 106.057 198.686 106.057 176.597 L 106.057 154.509 115.410 154.517 L 124.764 154.525 125.639 155.320 " stroke="none" fill="#fb3504" fill-rule="evenodd"></path><path id="path2" d="M71.237 92.396 C 71.350 92.581,74.204 95.965,77.580 99.916 L 83.718 107.100 83.649 125.066 L 83.580 143.032 81.529 143.378 C 74.196 144.617,69.064 148.884,66.061 156.238 C 65.245 158.236,65.575 159.526,67.470 161.755 C 67.523 161.817,67.861 161.592,68.221 161.253 C 68.793 160.716,68.860 160.701,68.749 161.140 C 68.611 161.686,70.450 165.007,70.890 165.007 C 71.037 165.007,72.355 166.218,73.820 167.699 C 76.955 170.866,76.352 170.685,78.404 169.075 C 79.326 168.351,80.898 167.310,81.898 166.762 L 83.715 165.765 83.715 181.993 L 83.715 198.222 76.178 205.594 C 72.032 209.649,68.641 213.077,68.641 213.213 C 68.641 213.348,70.064 213.459,71.803 213.460 L 74.966 213.460 73.755 214.525 C 72.806 215.359,72.321 215.592,71.515 215.601 C 70.260 215.615,70.234 215.489,72.275 219.310 C 73.787 222.144,73.941 222.336,74.708 222.339 C 75.433 222.341,75.611 222.513,76.258 223.831 C 77.209 225.771,73.933 225.585,105.876 225.507 L 134.095 225.437 125.998 214.167 L 117.900 202.896 117.900 184.355 L 117.900 165.814 127.389 165.817 L 136.878 165.819 140.024 168.441 C 142.532 170.531,143.173 171.206,143.187 171.767 C 143.201 172.379,143.417 172.549,144.818 173.060 C 146.415 173.643,146.433 173.661,146.433 174.699 C 146.433 175.683,146.497 175.766,147.443 176.029 C 148.794 176.404,148.656 176.449,149.852 175.253 C 150.435 174.670,151.266 174.109,151.701 174.005 C 153.229 173.638,153.163 174.216,153.163 161.293 L 153.163 149.301 153.861 149.953 C 155.167 151.175,155.174 151.229,155.325 160.700 L 155.468 169.717 155.527 161.054 C 155.590 151.653,155.564 151.444,154.107 149.933 L 153.198 148.991 153.113 145.037 C 153.031 141.191,153.009 141.063,152.319 140.326 C 150.864 138.774,150.266 136.248,151.020 134.840 C 151.252 134.405,151.185 134.266,150.616 134.007 C 150.041 133.745,149.933 133.515,149.933 132.556 L 149.933 131.416 146.569 130.244 L 143.205 129.071 143.204 128.197 C 143.203 126.858,143.260 126.815,133.917 135.128 L 125.142 142.934 121.521 142.934 L 117.900 142.934 117.900 128.824 L 117.900 114.713 119.670 114.524 C 122.807 114.188,135.250 114.561,138.089 115.076 C 143.087 115.983,151.217 119.731,152.649 121.789 C 154.230 124.060,154.139 123.972,154.562 123.621 C 155.221 123.073,156.192 125.070,155.848 126.268 C 155.704 126.772,155.585 127.322,155.585 127.491 C 155.585 127.806,158.470 129.103,158.687 128.886 C 158.754 128.819,158.158 128.494,157.363 128.164 L 155.916 127.565 156.415 125.626 C 158.657 116.921,164.316 107.384,172.486 98.546 C 174.566 96.295,174.396 96.304,176.562 98.336 L 177.944 99.633 174.881 103.720 C 168.844 111.772,164.979 118.372,162.028 125.664 C 161.221 127.659,160.999 127.971,160.035 128.463 C 159.073 128.954,159.011 129.041,159.489 129.227 C 160.407 129.586,160.586 129.505,161.058 128.514 C 161.450 127.693,161.928 127.357,164.343 126.203 C 167.570 124.662,167.217 125.052,170.507 119.381 C 173.208 114.723,176.387 109.984,179.298 106.273 C 180.309 104.985,181.273 103.710,181.442 103.440 C 181.733 102.975,176.356 97.149,174.869 96.317 C 174.639 96.188,174.519 95.904,174.603 95.686 C 174.730 95.354,174.352 95.289,172.303 95.289 C 170.955 95.289,169.852 95.213,169.852 95.120 C 169.852 95.027,170.224 94.300,170.679 93.505 L 171.507 92.059 121.269 92.059 C 81.149 92.059,71.073 92.127,71.237 92.396 M170.596 92.934 C 167.068 98.349,160.540 110.674,158.114 116.498 C 156.582 120.178,154.795 123.284,154.210 123.284 C 154.106 123.284,153.685 122.709,153.273 122.005 C 152.411 120.532,149.421 115.947,149.193 115.747 C 149.109 115.673,149.133 115.855,149.247 116.151 C 149.859 117.734,149.820 117.752,148.023 116.707 C 139.074 111.502,130.422 109.841,117.026 110.756 L 114.132 110.954 114.132 127.078 L 114.132 143.203 119.800 143.203 L 125.468 143.203 134.066 135.522 L 142.665 127.841 142.665 148.754 C 142.665 168.646,142.642 169.646,142.194 169.260 C 140.043 167.407,133.033 161.573,132.744 161.395 C 132.464 161.223,132.421 161.304,132.560 161.743 L 132.742 162.315 123.437 162.315 L 114.132 162.315 114.132 180.967 L 114.132 199.619 122.065 210.644 C 126.428 216.708,130.001 221.760,130.006 221.872 C 130.010 221.984,117.448 222.044,102.090 222.007 L 74.166 221.938 72.620 219.112 C 71.770 217.557,71.072 216.225,71.069 216.151 C 71.066 216.077,82.389 216.050,96.231 216.091 C 110.074 216.133,121.400 216.087,121.400 215.989 C 121.400 215.736,119.869 214.044,116.513 210.586 C 113.108 207.079,112.757 207.024,115.612 210.446 C 116.723 211.777,117.631 212.938,117.631 213.028 C 117.631 213.117,106.699 213.183,93.338 213.176 L 69.044 213.162 76.517 205.841 L 83.990 198.520 83.987 179.904 L 83.984 161.289 82.840 161.436 C 80.456 161.740,77.317 163.327,74.381 165.712 L 73.257 166.625 71.689 164.986 C 69.631 162.835,69.612 162.983,72.261 160.505 C 75.485 157.488,78.777 155.836,82.374 155.429 C 85.085 155.122,84.759 154.096,82.032 154.356 C 77.289 154.808,73.371 156.515,69.115 159.981 L 67.571 161.239 66.937 160.229 C 65.629 158.146,65.639 158.270,66.603 156.053 C 69.830 148.628,75.027 144.549,82.436 143.626 L 83.984 143.434 83.984 125.129 L 83.984 106.824 77.927 99.728 C 74.596 95.825,71.871 92.563,71.871 92.480 C 71.871 92.397,94.173 92.328,121.431 92.328 L 170.991 92.328 170.596 92.934 M106.057 123.393 L 106.057 143.203 107.133 143.203 L 108.210 143.203 108.210 124.250 L 108.210 105.297 110.565 105.096 C 125.986 103.778,137.998 105.448,143.540 109.681 C 145.494 111.173,145.061 110.306,143.001 108.604 C 140.825 106.805,138.704 105.748,135.801 105.018 C 131.656 103.975,129.795 103.840,117.833 103.710 L 106.057 103.582 106.057 123.393 M147.107 130.852 L 149.394 131.679 149.394 152.948 C 149.394 169.847,149.325 174.192,149.058 174.097 C 148.873 174.031,147.540 173.574,146.097 173.082 L 143.472 172.187 143.472 150.936 L 143.472 129.686 144.146 129.855 C 144.516 129.948,145.848 130.396,147.107 130.852 M264.361 146.490 C 264.346 146.743,264.628 148.136,264.988 149.585 C 265.805 152.878,266.307 157.630,266.126 160.364 L 265.987 162.450 266.264 160.412 C 266.664 157.469,265.947 151.565,264.616 146.837 C 264.491 146.393,264.376 146.237,264.361 146.490 M200.956 149.368 C 200.667 149.481,201.757 149.521,203.378 149.457 C 205.687 149.365,206.588 149.437,207.537 149.789 C 208.203 150.037,209.136 150.337,209.610 150.458 C 210.766 150.752,211.650 151.441,215.178 154.796 C 216.823 156.360,218.513 157.853,218.932 158.114 C 219.352 158.375,219.874 159.016,220.092 159.539 C 220.310 160.061,220.552 160.426,220.628 160.350 C 220.928 160.050,219.887 158.585,218.661 157.583 C 217.950 157.003,216.459 155.611,215.346 154.490 C 212.326 151.447,211.176 150.647,208.664 149.842 C 206.386 149.112,202.259 148.858,200.956 149.368 M199.394 150.328 C 198.705 151.276,198.819 151.418,199.596 150.580 C 200.312 149.808,200.389 149.658,200.067 149.672 C 199.956 149.677,199.653 149.972,199.394 150.328 M198.775 160.565 C 198.775 165.599,198.811 167.620,198.856 165.057 C 198.900 162.493,198.900 158.375,198.855 155.905 C 198.811 153.434,198.775 155.532,198.775 160.565 M106.057 176.597 L 106.057 198.686 106.909 199.747 C 107.378 200.330,107.863 200.808,107.986 200.808 C 108.109 200.808,108.210 190.814,108.210 178.600 L 108.210 156.393 117.362 156.393 C 122.396 156.393,126.514 156.331,126.514 156.255 C 126.514 156.179,126.120 155.758,125.639 155.320 L 124.764 154.525 115.410 154.517 L 106.057 154.509 106.057 176.597 M265.680 163.562 C 265.680 164.100,265.567 164.979,265.429 165.514 C 265.292 166.049,265.039 167.214,264.867 168.102 C 264.147 171.831,262.446 175.974,260.253 179.341 C 259.698 180.192,259.330 180.884,259.434 180.880 C 259.696 180.868,261.911 177.374,261.911 176.973 C 261.911 176.794,262.093 176.497,262.315 176.312 C 262.537 176.128,262.719 175.758,262.719 175.491 C 262.719 175.224,262.877 174.845,263.071 174.649 C 264.085 173.624,266.626 162.584,265.848 162.584 C 265.755 162.584,265.680 163.024,265.680 163.562 M258.731 181.597 C 258.596 181.839,257.842 182.686,257.055 183.481 C 256.268 184.276,255.751 184.926,255.905 184.926 C 256.245 184.926,258.484 182.567,258.923 181.746 C 259.285 181.071,259.104 180.930,258.731 181.597 M141.218 184.533 C 141.125 184.773,141.060 185.172,141.073 185.419 C 141.086 185.666,141.203 185.511,141.333 185.074 C 141.587 184.224,141.497 183.804,141.218 184.533 M140.624 186.669 C 140.355 187.739,140.993 191.988,141.554 192.867 L 141.898 193.405 141.706 192.867 C 141.322 191.787,140.956 189.327,140.936 187.685 C 140.913 185.827,140.870 185.687,140.624 186.669 M141.970 194.213 C 142.874 201.019,145.943 204.353,151.971 205.079 C 153.348 205.245,153.873 205.447,154.511 206.059 L 155.316 206.830 155.381 218.691 L 155.445 230.552 155.525 219.112 C 155.628 204.471,155.789 205.118,151.956 204.760 C 146.861 204.284,143.907 201.675,142.795 196.671 C 142.594 195.763,142.301 194.657,142.146 194.213 L 141.863 193.405 141.970 194.213 M199.667 204.992 C 198.621 205.567,198.631 205.424,198.717 218.035 L 198.795 229.475 198.859 217.695 L 198.923 205.914 199.798 205.368 C 200.554 204.896,200.965 204.843,202.826 204.975 C 207.886 205.334,208.817 205.366,207.537 205.137 C 204.809 204.648,200.438 204.567,199.667 204.992 M209.960 205.657 C 215.973 206.806,217.465 207.592,222.160 212.091 C 224.148 213.995,224.484 214.651,224.544 216.743 C 224.590 218.369,224.597 218.383,224.696 217.094 C 224.872 214.801,224.619 214.176,222.766 212.334 C 217.879 207.475,214.839 205.840,210.094 205.517 L 208.748 205.425 209.960 205.657 M270.279 205.922 C 270.287 206.144,270.398 206.568,270.525 206.864 L 270.756 207.402 270.771 206.864 C 270.779 206.568,270.668 206.144,270.525 205.922 C 270.293 205.563,270.266 205.563,270.279 205.922 M270.982 208.513 C 271.433 211.368,271.824 213.254,271.841 212.651 C 271.865 211.813,271.173 207.826,270.968 207.621 C 270.885 207.538,270.891 207.940,270.982 208.513 M271.818 219.785 C 271.732 223.338,271.545 226.548,271.402 226.918 C 271.259 227.288,271.070 228.136,270.982 228.802 C 270.808 230.124,271.023 229.604,271.594 227.322 C 271.921 226.014,272.329 214.953,272.091 213.863 C 272.026 213.567,271.903 216.231,271.818 219.785 M270.479 231.225 C 270.394 231.595,270.241 232.140,270.139 232.436 C 270.036 232.732,270.149 232.634,270.390 232.219 C 270.631 231.803,270.784 231.258,270.730 231.007 C 270.661 230.682,270.589 230.745,270.479 231.225 M269.352 234.658 C 268.579 237.050,267.316 239.835,266.317 241.347 C 265.253 242.959,265.132 243.441,266.072 242.324 C 266.802 241.456,269.179 236.728,269.179 236.143 C 269.179 235.940,269.368 235.408,269.599 234.962 C 269.830 234.515,269.982 233.916,269.936 233.630 C 269.886 233.325,269.647 233.746,269.352 234.658 M263.661 245.412 C 262.773 246.548,260.826 248.720,259.335 250.237 C 257.844 251.754,256.820 252.891,257.060 252.762 C 257.806 252.363,263.206 246.640,263.654 245.774 C 263.887 245.322,264.193 244.953,264.334 244.953 C 264.474 244.953,264.777 244.590,265.007 244.145 C 265.617 242.965,265.449 243.123,263.661 245.412 M144.062 244.508 C 143.158 247.009,143.577 249.214,145.810 253.705 C 146.947 255.993,147.916 257.826,147.964 257.778 C 148.095 257.647,147.330 256.045,144.857 251.279 C 144.031 249.688,143.718 246.040,144.288 244.664 C 144.472 244.221,144.568 243.805,144.502 243.740 C 144.437 243.674,144.239 244.020,144.062 244.508 M254.778 254.282 C 254.038 254.941,252.221 256.137,250.740 256.940 C 249.260 257.744,248.198 258.403,248.382 258.406 C 248.749 258.412,253.070 256.007,254.047 255.253 C 255.364 254.236,256.357 253.307,256.243 253.198 C 256.178 253.136,255.518 253.624,254.778 254.282 M148.054 258.229 C 148.041 258.784,149.463 260.779,150.068 261.055 C 150.438 261.223,150.740 261.483,150.740 261.631 C 150.740 262.291,153.880 263.450,156.258 263.669 L 157.335 263.768 156.258 263.514 C 155.666 263.375,154.758 263.184,154.240 263.089 C 152.445 262.763,149.967 260.989,148.834 259.219 C 148.408 258.553,148.056 258.108,148.054 258.229 M247.204 258.691 C 246.735 259.160,239.119 261.637,236.510 262.169 C 235.158 262.444,234.293 262.680,234.590 262.692 C 236.674 262.775,247.914 259.271,247.914 258.537 C 247.914 258.313,247.490 258.405,247.204 258.691 M231.494 263.023 C 230.828 263.158,229.435 263.371,228.398 263.497 C 226.642 263.710,226.605 263.727,227.860 263.750 C 228.600 263.764,230.296 263.552,231.629 263.278 C 232.961 263.005,233.748 262.781,233.378 262.780 C 233.008 262.779,232.160 262.888,231.494 263.023 M174.630 263.997 C 184.142 264.036,199.707 264.036,209.219 263.997 C 218.731 263.958,210.949 263.926,191.925 263.926 C 172.900 263.926,165.118 263.958,174.630 263.997 " stroke="none" fill="#e97c33" fill-rule="evenodd"></path><path id="path3" d="M193.594 122.090 C 179.537 123.623,166.211 128.226,154.974 135.431 L 153.421 136.427 156.858 138.235 C 158.749 139.229,161.174 140.520,162.248 141.103 L 164.199 142.164 164.199 159.800 L 164.199 177.435 162.248 177.282 C 161.174 177.198,158.552 177.097,156.421 177.057 L 152.546 176.985 150.530 181.367 C 148.196 186.439,148.175 186.021,150.740 185.716 C 151.851 185.584,155.333 185.394,158.479 185.293 L 164.199 185.110 164.199 187.536 L 164.199 189.962 160.767 190.141 C 156.774 190.350,150.650 190.859,150.508 190.995 C 150.020 191.461,151.136 193.824,151.780 193.688 C 153.533 193.319,159.703 192.732,161.842 192.732 L 164.199 192.732 164.199 213.008 L 164.199 233.284 157.744 238.782 C 154.193 241.806,151.286 244.390,151.283 244.525 C 151.274 245.000,222.812 244.508,226.380 244.009 C 243.149 241.661,253.927 231.983,255.731 217.651 C 257.421 204.229,250.822 191.536,238.821 185.124 L 236.624 183.950 239.423 182.662 C 260.609 172.916,264.427 147.358,246.974 132.114 C 244.054 129.563,243.643 129.812,246.249 132.555 C 262.138 149.282,256.590 174.814,235.572 181.683 L 233.089 182.494 230.340 181.725 C 226.696 180.706,226.670 180.353,230.148 179.098 C 243.567 174.253,249.745 166.199,249.627 153.701 C 249.422 132.123,225.474 118.613,193.594 122.090 M211.532 130.007 C 223.998 133.315,231.134 143.610,229.649 156.148 C 227.974 170.289,217.822 176.783,196.568 177.310 L 190.310 177.465 190.310 159.410 L 190.310 141.356 191.050 140.833 C 200.154 134.406,214.936 136.784,222.106 145.830 C 223.169 147.170,224.245 148.197,225.122 148.707 L 226.486 149.501 225.317 147.361 C 220.680 138.875,215.450 135.689,205.384 135.216 C 200.057 134.966,194.928 135.903,189.691 138.083 L 187.618 138.947 187.618 158.168 L 187.618 177.389 185.330 177.389 L 183.042 177.389 183.042 156.154 L 183.042 134.920 185.958 133.437 C 193.760 129.469,204.220 128.066,211.532 130.007 M153.163 149.479 C 153.163 149.525,153.557 149.919,154.038 150.353 L 154.913 151.144 154.122 150.269 C 153.385 149.454,153.163 149.271,153.163 149.479 M266.280 155.855 C 266.280 156.373,266.336 156.585,266.404 156.326 C 266.471 156.067,266.471 155.643,266.404 155.384 C 266.336 155.124,266.280 155.336,266.280 155.855 M207.268 185.584 C 226.948 187.891,233.217 193.906,233.234 210.498 C 233.245 220.340,231.027 225.958,225.352 230.468 C 219.327 235.256,213.992 236.445,195.895 237.031 L 190.310 237.212 190.310 215.279 L 190.310 193.346 191.723 193.176 C 195.836 192.682,207.106 193.118,212.248 193.970 C 219.826 195.227,226.172 198.878,229.666 203.993 C 229.940 204.393,230.302 204.588,230.666 204.531 C 232.584 204.230,225.609 196.194,221.669 194.164 C 215.490 190.982,200.604 189.429,189.031 190.760 L 187.618 190.922 187.618 214.034 L 187.618 237.147 185.330 237.147 L 183.042 237.147 183.042 211.183 L 183.042 185.220 184.859 185.107 C 188.965 184.853,203.711 185.167,207.268 185.584 M140.843 190.848 C 140.843 191.366,140.898 191.578,140.966 191.319 C 141.034 191.060,141.034 190.636,140.966 190.377 C 140.898 190.118,140.843 190.330,140.843 190.848 M252.893 192.296 C 252.409 192.650,252.436 192.728,253.479 193.978 C 264.202 206.829,263.534 227.484,252.029 238.806 C 245.426 245.304,237.957 248.213,225.221 249.249 C 223.078 249.423,209.102 249.529,188.276 249.529 C 165.655 249.529,154.778 249.618,154.778 249.804 C 154.778 249.955,155.097 250.561,155.487 251.150 L 156.195 252.221 190.317 252.221 C 225.268 252.221,227.126 252.173,233.109 251.124 C 251.879 247.833,263.633 234.097,263.615 215.478 C 263.606 205.922,261.383 199.638,256.021 194.011 C 253.933 191.819,253.711 191.697,252.893 192.296 M145.345 202.490 C 146.005 203.193,146.581 203.769,146.624 203.769 C 146.826 203.769,146.612 203.527,145.424 202.411 L 144.145 201.211 145.345 202.490 M151.750 205.304 C 152.083 205.369,152.628 205.369,152.961 205.304 C 153.294 205.240,153.022 205.188,152.355 205.188 C 151.689 205.188,151.417 205.240,151.750 205.304 M204.916 205.308 C 205.325 205.369,205.931 205.368,206.262 205.304 C 206.593 205.240,206.258 205.189,205.518 205.191 C 204.778 205.193,204.507 205.246,204.916 205.308 M153.701 205.468 C 153.701 205.514,154.095 205.908,154.576 206.343 L 155.451 207.133 154.660 206.258 C 153.923 205.443,153.701 205.260,153.701 205.468 M143.535 247.376 C 143.535 247.894,143.590 248.106,143.658 247.847 C 143.726 247.587,143.726 247.164,143.658 246.904 C 143.590 246.645,143.535 246.857,143.535 247.376 M259.887 250.135 L 257.470 252.624 259.960 250.207 C 261.329 248.878,262.450 247.758,262.450 247.718 C 262.450 247.522,262.132 247.822,259.887 250.135 " stroke="none" fill="#04b3f3" fill-rule="evenodd"></path><path id="path4" d="M167.436 124.487 C 167.256 124.704,165.850 125.483,164.312 126.218 C 161.912 127.365,161.451 127.691,161.051 128.529 C 160.686 129.296,160.468 129.473,160.037 129.358 C 158.575 128.965,158.100 128.903,158.745 129.189 C 159.268 129.420,159.312 129.551,159.074 130.176 C 158.924 130.572,158.834 130.924,158.875 130.959 C 158.917 130.993,159.366 131.233,159.873 131.492 L 160.796 131.961 163.152 130.807 C 165.364 129.722,165.535 129.577,165.969 128.420 C 166.224 127.742,166.779 126.491,167.203 125.639 C 167.979 124.085,168.046 123.752,167.436 124.487 M151.042 134.388 C 150.551 137.276,150.936 139.176,152.231 140.251 C 152.481 140.458,152.785 140.874,152.907 141.175 C 153.041 141.507,153.135 140.374,153.146 138.294 L 153.163 134.866 152.188 134.459 C 151.018 133.970,151.112 133.976,151.042 134.388 M200.000 143.771 C 198.742 144.050,197.672 144.399,197.623 144.548 C 197.573 144.697,197.374 144.818,197.180 144.818 C 196.615 144.818,196.462 145.627,196.872 146.449 C 197.080 146.867,197.180 147.280,197.093 147.366 C 197.006 147.453,196.898 147.793,196.852 148.123 C 196.788 148.579,196.828 148.629,197.021 148.330 C 197.159 148.115,197.201 147.813,197.113 147.658 C 197.025 147.502,197.053 147.467,197.176 147.579 C 197.300 147.690,197.400 152.657,197.400 158.615 L 197.401 169.448 197.556 160.162 C 197.756 148.255,197.741 148.287,203.236 148.092 C 208.419 147.909,211.309 149.201,216.185 153.879 C 218.063 155.680,219.859 157.293,220.177 157.464 C 220.495 157.634,221.003 158.159,221.306 158.631 C 221.736 159.301,221.827 159.356,221.721 158.883 C 221.646 158.550,221.709 158.277,221.860 158.277 C 222.012 158.277,222.069 158.023,221.988 157.712 C 221.906 157.402,221.912 157.219,221.999 157.307 C 222.184 157.492,223.043 156.358,222.945 156.057 C 222.910 155.945,222.999 155.855,223.144 155.855 C 223.289 155.855,223.198 155.446,222.942 154.948 C 222.683 154.443,222.327 154.097,222.140 154.169 C 221.955 154.239,221.803 154.128,221.803 153.922 C 221.803 153.716,221.561 153.524,221.265 153.496 C 220.139 153.389,219.923 153.338,220.050 153.212 C 220.196 153.066,219.367 152.377,219.029 152.364 C 218.909 152.359,218.899 152.507,219.008 152.692 C 219.116 152.877,218.941 152.798,218.620 152.515 C 217.967 151.943,217.806 151.561,218.439 152.086 C 218.704 152.306,218.843 152.320,218.843 152.129 C 218.843 151.846,217.784 151.124,217.485 151.203 C 217.405 151.224,217.321 151.000,217.299 150.706 C 217.277 150.412,216.827 149.727,216.300 149.184 C 215.772 148.641,215.272 147.980,215.188 147.715 C 215.104 147.450,214.915 147.308,214.767 147.399 C 214.620 147.490,214.431 147.303,214.348 146.984 C 214.256 146.634,214.049 146.459,213.827 146.544 C 213.615 146.626,213.459 146.512,213.459 146.274 C 213.459 146.048,213.338 145.938,213.190 146.030 C 213.042 146.121,212.921 146.061,212.921 145.895 C 212.921 145.729,212.799 145.669,212.651 145.760 C 212.503 145.852,212.382 145.791,212.382 145.626 C 212.382 145.460,212.274 145.392,212.141 145.474 C 212.009 145.556,211.830 145.441,211.745 145.218 C 211.660 144.995,211.495 144.834,211.380 144.859 C 211.265 144.885,210.808 144.756,210.363 144.573 C 209.919 144.390,208.950 144.119,208.210 143.971 C 207.470 143.822,206.426 143.589,205.891 143.452 C 204.483 143.092,202.608 143.194,200.000 143.771 M153.217 145.626 L 153.229 147.914 154.554 148.937 C 156.528 150.461,156.502 150.322,156.678 160.431 L 156.834 169.448 156.846 159.682 C 156.852 154.311,156.923 149.851,157.004 149.771 C 157.084 149.690,156.761 149.240,156.287 148.769 C 155.812 148.299,155.705 148.149,156.049 148.437 C 156.739 149.015,157.767 149.315,157.236 148.783 C 156.825 148.373,156.848 147.967,157.268 148.219 C 157.464 148.337,157.436 148.209,157.201 147.914 C 156.978 147.635,156.938 147.491,157.110 147.595 C 157.626 147.904,157.686 147.170,157.227 146.164 C 156.768 145.159,156.126 144.516,155.790 144.723 C 155.678 144.793,155.585 144.736,155.585 144.596 C 155.585 144.223,154.512 144.003,154.492 144.372 C 154.482 144.544,154.355 144.384,154.209 144.017 C 154.009 143.518,153.887 143.441,153.720 143.711 C 153.535 144.011,153.473 144.010,153.351 143.705 C 153.271 143.503,153.211 144.367,153.217 145.626 M203.166 147.426 C 202.909 147.493,202.424 147.496,202.089 147.431 C 201.754 147.367,201.965 147.312,202.557 147.309 C 203.149 147.306,203.423 147.358,203.166 147.426 M205.451 147.431 C 205.118 147.495,204.573 147.495,204.240 147.431 C 203.906 147.367,204.179 147.314,204.845 147.314 C 205.511 147.314,205.784 147.367,205.451 147.431 M156.648 150.017 C 156.582 150.073,156.173 149.683,155.740 149.151 L 154.952 148.183 155.860 149.049 C 156.360 149.526,156.715 149.961,156.648 150.017 M264.607 149.013 C 264.609 149.445,264.735 149.980,264.886 150.202 C 265.083 150.491,265.110 150.300,264.981 149.529 C 264.757 148.194,264.602 147.979,264.607 149.013 M153.163 148.806 C 153.163 148.926,153.541 149.380,154.004 149.815 C 155.549 151.268,155.585 151.527,155.585 160.960 C 155.585 166.529,155.681 169.583,155.855 169.583 C 156.217 169.583,156.219 152.103,155.857 151.150 C 155.447 150.072,153.163 148.084,153.163 148.806 M200.135 148.997 C 197.960 150.169,197.847 150.767,197.847 161.107 C 197.847 168.629,197.885 169.315,198.318 169.547 C 198.762 169.784,198.789 169.271,198.789 160.471 C 198.789 148.830,198.650 149.125,204.120 149.125 C 208.524 149.125,211.988 150.770,215.366 154.466 C 216.045 155.208,217.403 156.501,218.383 157.338 C 219.364 158.175,220.242 159.099,220.335 159.391 C 220.546 160.058,221.163 159.883,221.038 159.191 C 220.937 158.637,220.721 158.414,218.709 156.797 C 217.972 156.205,216.314 154.666,215.023 153.378 C 211.410 149.773,209.161 148.768,204.441 148.650 C 201.612 148.579,200.788 148.646,200.135 148.997 M217.227 153.028 C 218.479 154.287,219.443 155.316,219.369 155.316 C 219.295 155.316,218.210 154.287,216.958 153.028 C 215.706 151.770,214.743 150.740,214.817 150.740 C 214.891 150.740,215.976 151.770,217.227 153.028 M265.171 151.817 C 265.169 152.483,265.268 154.240,265.390 155.720 C 265.714 159.633,265.367 163.063,264.038 169.080 C 262.975 173.896,258.844 181.502,256.017 183.849 C 255.571 184.220,255.147 184.926,255.370 184.926 C 257.636 184.926,263.676 174.230,264.870 168.102 C 265.043 167.214,265.291 166.003,265.422 165.410 C 266.078 162.420,266.266 158.657,265.931 155.182 C 265.571 151.434,265.178 149.697,265.171 151.817 M217.093 153.701 C 218.419 155.034,219.444 156.124,219.370 156.124 C 219.296 156.124,218.150 155.034,216.824 153.701 C 215.497 152.369,214.473 151.279,214.547 151.279 C 214.621 151.279,215.767 152.369,217.093 153.701 M264.771 157.147 C 264.661 157.324,264.629 157.563,264.699 157.677 C 265.090 158.310,264.183 165.381,263.745 165.110 C 263.564 164.999,263.531 165.254,263.648 165.848 C 263.769 166.457,263.744 166.634,263.572 166.384 C 263.283 165.964,263.153 166.256,262.838 168.035 C 262.739 168.590,262.555 169.044,262.428 169.044 C 262.301 169.044,262.267 169.226,262.352 169.448 C 262.437 169.670,262.377 169.852,262.218 169.852 C 262.054 169.852,262.005 170.057,262.105 170.323 C 262.260 170.738,262.226 170.749,261.821 170.420 C 261.418 170.092,261.382 170.101,261.530 170.487 C 261.626 170.738,261.567 170.929,261.392 170.929 C 261.172 170.929,261.163 171.076,261.363 171.449 C 261.773 172.214,261.703 172.458,261.247 171.855 C 260.774 171.230,260.711 171.536,261.143 172.360 L 261.451 172.948 260.832 172.409 L 260.213 171.871 260.715 172.678 L 261.217 173.486 260.583 172.948 L 259.949 172.409 260.263 173.009 C 260.539 173.535,260.519 173.587,260.100 173.429 C 259.667 173.267,259.660 173.297,260.027 173.755 C 260.396 174.217,260.387 174.243,259.922 174.068 C 259.469 173.899,259.454 173.929,259.787 174.338 C 260.113 174.739,260.106 174.777,259.730 174.637 C 259.338 174.490,258.211 175.425,258.359 175.774 C 258.391 175.848,258.246 176.107,258.038 176.350 C 257.713 176.729,257.715 176.846,258.049 177.180 C 258.388 177.518,258.385 177.568,258.033 177.568 C 257.810 177.568,257.690 177.467,257.767 177.344 C 257.843 177.221,257.777 177.120,257.620 177.120 C 257.463 177.120,257.335 177.258,257.335 177.427 C 257.335 177.595,257.123 177.907,256.864 178.119 C 256.605 178.332,256.563 178.417,256.771 178.309 C 257.026 178.177,257.084 178.219,256.948 178.438 C 256.838 178.617,256.607 178.713,256.436 178.651 C 255.992 178.491,255.136 178.981,255.325 179.287 C 255.412 179.427,255.354 179.542,255.198 179.542 C 255.041 179.542,254.913 179.660,254.913 179.803 C 254.913 179.947,255.124 179.988,255.384 179.895 C 255.643 179.802,255.793 179.775,255.719 179.836 C 255.644 179.897,255.160 180.310,254.643 180.754 C 253.744 181.526,253.731 181.529,254.355 180.821 C 255.526 179.490,254.630 180.043,252.665 181.863 C 251.120 183.294,250.744 183.795,250.761 184.407 C 250.773 184.827,250.689 185.112,250.576 185.042 C 250.462 184.972,250.415 184.677,250.471 184.388 C 250.527 184.098,250.484 183.806,250.376 183.739 C 250.071 183.551,250.058 184.726,250.361 185.090 C 250.649 185.437,251.075 185.442,251.615 185.104 C 251.800 184.989,251.952 184.977,251.952 185.078 C 251.952 185.179,252.156 185.095,252.407 184.892 C 252.716 184.641,252.798 184.630,252.660 184.859 C 252.534 185.068,252.611 185.195,252.862 185.195 C 253.084 185.195,253.349 185.061,253.450 184.897 C 253.582 184.683,253.689 184.689,253.831 184.918 C 254.074 185.311,256.617 182.701,258.497 180.131 C 260.623 177.223,263.186 171.683,263.782 168.708 C 263.938 167.931,264.176 166.750,264.311 166.083 C 264.943 162.974,265.285 156.314,264.771 157.147 M152.624 173.635 C 152.402 173.750,151.826 173.991,151.345 174.170 C 150.863 174.348,150.109 174.903,149.671 175.403 C 149.232 175.903,148.717 176.324,148.528 176.339 C 148.338 176.354,149.069 176.648,150.153 176.994 C 152.115 177.620,152.124 177.620,152.655 177.089 C 153.346 176.399,153.318 173.273,152.624 173.635 M259.531 175.176 C 259.268 175.264,259.271 175.382,259.545 175.733 C 259.853 176.127,259.840 176.137,259.437 175.822 C 258.951 175.441,259.075 174.576,259.571 174.883 C 259.776 175.010,259.764 175.099,259.531 175.176 M259.110 176.085 C 259.229 176.277,259.184 176.322,258.992 176.203 C 258.592 175.956,258.587 176.380,258.985 176.778 C 259.255 177.048,258.980 177.080,258.200 176.871 C 258.088 176.841,258.680 175.774,258.809 175.774 C 258.869 175.774,259.005 175.914,259.110 176.085 M260.296 176.282 C 260.296 176.414,260.052 176.808,259.754 177.157 L 259.212 177.793 259.687 176.920 C 260.185 176.004,260.296 175.887,260.296 176.282 M258.705 178.959 C 258.560 179.230,258.230 179.624,257.971 179.834 C 257.681 180.070,257.746 179.882,258.142 179.341 C 258.849 178.375,259.114 178.195,258.705 178.959 M141.079 186.050 C 140.844 187.009,140.776 188.011,140.897 188.742 C 141.338 191.401,141.558 192.397,141.988 193.674 C 142.238 194.415,142.604 195.763,142.802 196.671 C 143.885 201.633,146.815 204.246,151.866 204.750 C 155.737 205.137,155.585 204.575,155.585 218.607 C 155.585 226.254,155.677 230.123,155.855 230.013 C 156.028 229.907,156.124 225.540,156.124 217.797 L 156.124 205.747 155.466 205.129 C 154.960 204.653,154.328 204.460,152.707 204.286 C 146.756 203.647,144.673 201.765,143.197 195.693 C 142.856 194.287,142.403 192.719,142.191 192.209 C 141.974 191.686,141.730 189.811,141.630 187.902 L 141.454 184.522 141.079 186.050 M141.861 188.194 C 141.859 188.732,142.165 190.307,142.541 191.693 C 142.917 193.079,143.404 194.939,143.623 195.828 C 144.958 201.237,147.119 203.213,152.287 203.747 C 156.844 204.219,156.498 203.161,156.677 217.201 L 156.826 228.937 156.863 216.151 C 156.907 201.202,156.876 202.626,157.156 202.799 C 157.279 202.875,157.380 202.766,157.380 202.557 C 157.380 202.348,157.290 202.233,157.179 202.301 C 156.827 202.519,157.083 201.623,157.473 201.276 C 157.764 201.016,157.760 201.062,157.457 201.480 C 157.095 201.979,157.101 201.991,157.540 201.647 C 157.867 201.390,157.932 201.175,157.749 200.954 C 157.570 200.739,157.591 200.516,157.813 200.277 C 158.074 199.995,158.072 199.961,157.806 200.111 C 157.604 200.225,157.470 200.145,157.470 199.910 C 157.470 199.334,156.540 199.208,153.883 199.422 C 152.552 199.529,151.442 199.508,151.359 199.374 C 151.278 199.243,151.107 199.299,150.980 199.500 C 150.785 199.808,150.748 199.808,150.744 199.500 C 150.742 199.298,150.572 199.200,150.363 199.280 C 150.155 199.359,149.913 199.352,149.825 199.264 C 149.647 199.087,148.462 198.879,147.682 198.888 C 147.406 198.892,147.254 198.821,147.343 198.731 C 147.583 198.492,146.479 197.786,146.167 197.980 C 146.009 198.077,145.973 197.956,146.078 197.682 C 146.182 197.413,146.147 197.287,145.995 197.381 C 145.665 197.585,145.263 197.322,144.859 196.635 C 144.577 196.156,144.557 196.186,144.684 196.904 C 144.799 197.558,144.746 197.506,144.404 196.635 C 144.166 196.030,144.046 195.205,144.130 194.751 C 144.238 194.164,144.207 194.054,144.015 194.347 C 143.681 194.857,143.670 194.459,143.988 193.351 C 144.161 192.748,144.142 192.462,143.924 192.389 C 143.694 192.312,143.702 192.091,143.956 191.535 C 144.245 190.900,144.239 190.806,143.916 190.930 C 143.638 191.037,143.568 190.917,143.661 190.491 C 143.754 190.065,143.718 190.004,143.531 190.269 C 143.341 190.536,143.220 190.358,143.071 189.596 C 142.902 188.724,142.835 188.645,142.652 189.098 C 142.467 189.555,142.430 189.514,142.410 188.829 C 142.375 187.571,141.867 186.983,141.861 188.194 M145.464 198.856 C 145.709 199.337,145.848 199.731,145.774 199.731 C 145.619 199.731,144.818 198.239,144.818 197.950 C 144.818 197.669,144.964 197.874,145.464 198.856 M146.900 198.897 C 146.862 199.393,146.375 199.493,145.970 199.088 C 145.855 198.973,145.927 198.919,146.131 198.968 C 146.334 199.017,146.562 198.890,146.637 198.684 C 146.728 198.433,146.659 198.380,146.427 198.524 C 146.198 198.665,146.147 198.630,146.276 198.422 C 146.546 197.985,146.945 198.290,146.900 198.897 M197.237 199.276 C 196.589 199.797,196.465 200.857,196.982 201.466 C 197.420 201.983,197.419 201.991,196.963 201.638 C 196.521 201.295,196.504 201.320,196.744 201.951 C 196.887 202.328,196.922 202.729,196.820 202.842 C 196.718 202.955,196.789 202.959,196.976 202.851 C 197.164 202.743,197.235 202.512,197.135 202.337 C 197.035 202.162,197.055 202.112,197.181 202.226 C 197.504 202.520,197.541 203.508,197.221 203.311 C 197.069 203.217,197.042 203.286,197.157 203.472 C 197.267 203.651,197.371 209.453,197.388 216.367 L 197.418 228.937 197.565 217.093 C 197.646 210.579,197.812 205.048,197.933 204.803 C 198.960 202.731,211.605 203.761,216.888 206.345 C 219.594 207.669,224.379 211.954,225.318 213.895 C 225.991 215.284,226.270 215.290,225.888 213.907 C 225.680 213.153,225.699 212.986,225.981 213.095 C 226.229 213.189,226.314 213.022,226.261 212.545 C 226.217 212.139,226.392 211.673,226.689 211.404 C 227.169 210.969,227.170 210.925,226.718 210.408 C 226.381 210.022,226.361 209.932,226.649 210.094 C 226.938 210.257,226.919 210.169,226.581 209.782 C 226.321 209.486,226.200 209.143,226.312 209.020 C 226.423 208.897,226.380 208.873,226.215 208.967 C 226.051 209.061,225.389 208.665,224.745 208.088 C 224.100 207.510,223.459 207.108,223.320 207.194 C 223.180 207.281,223.141 207.230,223.232 207.083 C 223.323 206.935,222.978 206.408,222.466 205.912 C 221.954 205.415,221.534 204.838,221.534 204.629 C 221.534 204.414,221.371 204.312,221.157 204.394 C 220.925 204.483,220.718 204.312,220.619 203.952 C 220.484 203.460,220.415 203.430,220.193 203.769 C 219.974 204.101,219.927 204.072,219.923 203.608 C 219.919 203.064,217.998 201.903,217.415 202.093 C 217.290 202.133,217.258 202.053,217.344 201.913 C 217.589 201.518,212.973 200.161,210.363 199.861 C 202.824 198.996,197.861 198.775,197.237 199.276 M148.183 201.984 C 148.331 202.113,148.210 202.094,147.914 201.940 C 147.618 201.787,147.012 201.257,146.569 200.763 L 145.762 199.865 146.838 200.807 C 147.430 201.325,148.035 201.854,148.183 201.984 M199.978 203.058 C 199.916 203.111,199.502 203.236,199.058 203.335 C 198.468 203.467,198.359 203.442,198.654 203.242 C 199.018 202.996,200.248 202.825,199.978 203.058 M204.243 203.146 C 203.985 203.213,203.501 203.216,203.166 203.151 C 202.831 203.087,203.042 203.032,203.634 203.029 C 204.226 203.026,204.500 203.079,204.243 203.146 M199.563 204.330 C 197.937 204.802,197.988 204.401,197.903 217.236 C 197.834 227.630,197.874 229.024,198.240 229.165 C 198.609 229.306,198.654 228.057,198.654 217.740 C 198.654 203.335,198.211 204.342,204.332 204.838 C 214.806 205.685,216.852 206.509,222.656 212.213 C 224.468 213.993,224.763 214.573,224.769 216.370 C 224.772 217.284,224.845 217.520,225.034 217.227 C 226.073 215.619,225.197 213.895,221.633 210.538 C 216.926 206.106,213.670 204.861,205.384 204.326 C 200.380 204.002,200.694 204.002,199.563 204.330 M221.534 208.748 C 222.037 209.266,222.387 209.690,222.313 209.690 C 222.239 209.690,221.767 209.266,221.265 208.748 C 220.763 208.230,220.413 207.806,220.487 207.806 C 220.561 207.806,221.032 208.230,221.534 208.748 M271.022 216.428 C 271.154 227.129,270.749 229.670,267.719 237.147 C 265.889 241.663,263.170 245.567,258.816 249.931 C 254.995 253.760,249.664 257.460,246.570 258.429 C 246.199 258.545,245.229 258.898,244.415 259.213 C 241.575 260.310,238.876 261.081,235.935 261.635 C 234.307 261.941,232.429 262.334,231.763 262.507 C 230.012 262.962,157.416 263.153,155.316 262.708 C 151.452 261.888,150.089 260.521,147.107 254.472 L 144.743 249.676 144.563 246.978 C 144.430 244.980,144.328 244.471,144.169 245.018 C 143.741 246.485,144.110 249.833,144.858 251.279 C 146.213 253.895,147.207 255.879,148.199 257.940 C 149.245 260.115,150.368 261.280,152.490 262.389 C 154.945 263.673,154.550 263.661,192.598 263.661 L 228.398 263.661 231.763 263.045 C 237.816 261.936,239.026 261.644,242.752 260.392 C 247.209 258.894,252.466 256.221,255.025 254.151 C 258.550 251.300,264.951 244.414,265.370 243.021 C 265.429 242.825,265.870 242.059,266.351 241.319 C 270.819 234.435,273.052 220.891,271.380 210.815 L 270.919 208.037 271.022 216.428 M270.565 217.255 C 270.523 221.989,270.296 225.090,270.005 224.911 C 269.909 224.851,269.862 225.248,269.900 225.793 C 269.963 226.681,269.944 226.714,269.714 226.110 C 269.507 225.570,269.484 225.666,269.593 226.601 C 269.690 227.426,269.641 227.710,269.426 227.577 C 269.210 227.444,269.174 227.654,269.301 228.297 C 269.434 228.969,269.407 229.101,269.199 228.802 C 268.957 228.454,268.917 228.464,268.914 228.869 C 268.912 229.129,268.792 229.341,268.649 229.341 C 268.506 229.341,268.458 229.522,268.543 229.744 C 268.629 229.966,268.562 230.148,268.395 230.148 C 268.205 230.148,268.152 230.423,268.254 230.888 C 268.384 231.486,268.355 231.551,268.102 231.225 C 267.851 230.900,267.822 230.971,267.957 231.584 C 268.074 232.121,268.033 232.290,267.815 232.156 C 267.598 232.022,267.563 232.155,267.698 232.604 C 267.886 233.233,267.881 233.234,267.443 232.705 C 267.005 232.176,267.001 232.177,267.175 232.806 C 267.287 233.209,267.252 233.383,267.080 233.277 C 266.912 233.173,266.865 233.333,266.958 233.689 C 267.062 234.084,267.012 234.209,266.802 234.079 C 266.598 233.954,266.551 234.039,266.662 234.329 C 266.799 234.685,266.880 234.701,267.088 234.410 C 267.277 234.146,267.303 234.182,267.186 234.544 C 267.098 234.815,267.026 235.111,267.026 235.201 C 267.026 235.292,266.834 235.130,266.600 234.843 C 266.254 234.418,266.201 234.406,266.317 234.778 C 266.422 235.116,266.345 235.191,266.021 235.067 C 265.623 234.914,265.625 234.958,266.035 235.544 C 266.671 236.452,266.599 236.796,265.934 236.033 C 265.397 235.417,265.389 235.416,265.671 235.997 C 265.923 236.517,265.898 236.573,265.484 236.417 C 265.050 236.255,265.044 236.285,265.410 236.743 C 265.780 237.205,265.771 237.231,265.305 237.056 C 264.853 236.887,264.838 236.917,265.171 237.326 C 265.503 237.734,265.488 237.764,265.036 237.595 C 264.601 237.431,264.577 237.464,264.872 237.820 C 265.167 238.175,265.144 238.208,264.708 238.045 C 264.242 237.870,264.233 237.896,264.603 238.358 C 264.965 238.811,264.962 238.846,264.575 238.701 C 263.978 238.478,263.196 239.399,263.620 239.827 C 263.855 240.064,263.816 240.096,263.459 239.960 C 263.127 239.834,262.988 239.913,262.988 240.229 C 262.988 240.476,263.089 240.615,263.212 240.539 C 263.336 240.463,263.437 240.581,263.437 240.801 C 263.437 241.077,263.350 241.116,263.158 240.924 C 262.535 240.301,262.317 240.856,262.845 241.723 C 263.055 242.067,263.026 242.074,262.650 241.769 C 262.310 241.493,262.097 241.482,261.723 241.722 C 261.274 242.010,261.278 242.021,261.777 241.877 C 262.275 241.733,262.280 241.748,261.848 242.085 C 261.591 242.285,261.451 242.519,261.536 242.604 C 261.622 242.689,261.198 243.086,260.594 243.485 C 259.991 243.884,259.552 244.300,259.619 244.408 C 259.686 244.517,259.412 244.896,259.009 245.250 L 258.277 245.895 258.930 245.155 C 260.290 243.612,259.067 244.511,256.458 246.972 C 254.967 248.378,253.599 249.529,253.417 249.529 C 253.235 249.529,253.006 249.738,252.908 249.992 C 252.758 250.382,252.692 250.394,252.491 250.069 C 252.304 249.767,252.185 249.856,251.952 250.471 C 251.738 251.032,251.589 251.159,251.435 250.910 C 251.267 250.638,251.181 250.658,251.049 251.004 C 250.955 251.248,250.769 251.380,250.636 251.297 C 250.502 251.215,250.320 251.336,250.232 251.566 C 250.143 251.797,249.949 251.910,249.800 251.818 C 249.651 251.726,249.529 251.779,249.529 251.936 C 249.529 252.092,249.347 252.221,249.125 252.221 C 248.903 252.221,248.713 252.433,248.702 252.692 C 248.686 253.095,248.650 253.085,248.452 252.624 C 248.240 252.130,248.219 252.141,248.198 252.759 C 248.181 253.251,248.111 253.332,247.940 253.061 C 247.790 252.825,247.572 252.775,247.338 252.922 C 247.137 253.050,246.911 253.173,246.837 253.195 C 245.836 253.495,245.491 253.671,245.491 253.883 C 245.491 254.023,245.370 254.062,245.222 253.970 C 245.074 253.879,244.953 253.952,244.953 254.134 C 244.953 254.315,244.877 254.388,244.784 254.295 C 244.691 254.202,244.207 254.297,243.707 254.506 C 243.208 254.714,242.799 254.816,242.799 254.731 C 242.799 254.647,242.648 254.697,242.463 254.842 C 242.118 255.114,240.532 255.566,240.486 255.406 C 240.471 255.356,240.285 255.462,240.071 255.639 C 239.857 255.816,239.263 256.034,238.751 256.123 C 238.239 256.211,237.032 256.466,236.070 256.689 C 229.013 258.322,230.915 258.252,191.857 258.329 C 167.670 258.377,156.124 258.311,156.124 258.125 C 156.124 257.789,155.258 257.905,154.984 258.277 C 154.871 258.431,154.784 258.350,154.782 258.091 C 154.779 257.767,154.607 257.668,154.184 257.750 C 153.822 257.819,153.333 257.630,152.930 257.263 C 152.475 256.849,152.316 256.795,152.421 257.088 C 152.512 257.343,152.426 257.515,152.207 257.515 C 152.005 257.515,151.904 257.413,151.980 257.288 C 152.057 257.164,151.932 256.990,151.701 256.901 C 151.470 256.813,151.360 256.613,151.456 256.458 C 151.561 256.289,151.501 256.256,151.307 256.375 C 151.081 256.515,151.067 256.677,151.261 256.910 C 151.461 257.151,151.430 257.245,151.152 257.245 C 150.938 257.245,150.826 257.144,150.903 257.021 C 151.028 256.818,150.642 256.687,150.143 256.762 C 149.708 256.828,149.374 255.724,149.664 255.182 C 149.870 254.796,149.868 254.643,149.657 254.643 C 149.495 254.643,149.437 254.522,149.529 254.374 C 149.620 254.226,149.567 254.105,149.410 254.105 C 149.253 254.105,149.120 254.256,149.113 254.441 C 149.107 254.627,148.854 254.310,148.552 253.737 C 148.121 252.920,148.074 252.631,148.335 252.391 C 148.583 252.163,148.621 252.166,148.488 252.402 C 148.266 252.799,148.853 254.139,149.165 253.946 C 149.291 253.868,149.394 253.683,149.394 253.535 C 149.394 253.387,149.253 253.353,149.079 253.460 C 148.866 253.592,148.821 253.506,148.942 253.193 C 149.042 252.933,149.009 252.799,148.867 252.887 C 148.722 252.977,148.650 252.583,148.697 251.959 C 148.784 250.810,148.660 250.668,148.042 251.211 C 147.831 251.396,147.887 251.275,148.165 250.942 C 148.701 250.300,148.419 250.106,147.773 250.673 C 147.562 250.858,147.587 250.767,147.829 250.471 C 148.371 249.806,147.847 249.052,147.235 249.617 C 146.964 249.867,146.929 249.820,147.067 249.394 L 147.242 248.856 146.810 249.394 C 146.387 249.922,146.382 249.920,146.569 249.293 C 146.700 248.856,146.666 248.712,146.462 248.838 C 146.295 248.942,146.164 248.845,146.164 248.619 C 146.164 248.397,146.054 248.147,145.920 248.064 C 145.786 247.981,145.736 248.186,145.809 248.519 C 145.916 249.006,145.885 249.046,145.653 248.721 C 145.495 248.499,145.363 247.992,145.361 247.593 C 145.359 247.195,145.236 246.794,145.087 246.703 C 144.237 246.177,145.337 250.074,146.814 252.819 C 147.474 254.045,148.274 255.713,148.592 256.527 C 149.746 259.481,151.909 261.374,155.083 262.208 C 158.153 263.014,224.693 262.997,230.346 262.189 C 252.796 258.979,266.432 247.171,270.143 227.725 C 270.570 225.490,270.989 215.342,270.727 213.594 C 270.660 213.149,270.587 214.797,270.565 217.255 M260.498 242.953 C 260.091 243.174,259.758 243.412,259.758 243.481 C 259.758 243.741,260.183 243.578,260.834 243.069 C 261.634 242.443,261.515 242.402,260.498 242.953 M261.373 245.840 C 261.373 245.884,260.858 246.399,260.229 246.984 L 259.085 248.048 260.149 246.904 C 261.138 245.841,261.373 245.637,261.373 245.840 M256.797 250.416 C 256.797 250.460,256.282 250.975,255.653 251.560 L 254.509 252.624 255.573 251.480 C 256.562 250.417,256.797 250.213,256.797 250.416 M149.799 255.449 C 149.709 255.596,149.735 255.895,149.858 256.115 C 150.043 256.445,150.145 256.411,150.454 255.915 C 150.806 255.350,150.799 255.339,150.329 255.720 C 149.879 256.086,149.848 256.080,150.008 255.653 C 150.199 255.144,150.068 255.015,149.799 255.449 M153.679 261.022 C 153.740 261.067,153.663 261.104,153.507 261.104 C 153.350 261.104,152.937 260.854,152.587 260.549 L 151.952 259.995 152.759 260.468 C 153.203 260.728,153.617 260.977,153.679 261.022 M208.950 261.575 C 199.586 261.614,184.263 261.614,174.899 261.575 C 165.535 261.535,173.197 261.503,191.925 261.503 C 210.653 261.503,218.314 261.535,208.950 261.575 M209.468 262.113 C 199.796 262.152,184.049 262.152,174.474 262.113 C 164.900 262.074,172.813 262.042,192.059 262.042 C 211.306 262.042,219.139 262.074,209.468 262.113 " stroke="none" fill="#849344" fill-rule="evenodd"></path></g></svg>